M48
; DRILL file {KiCad 9.0.3} date 2025-08-05T07:58:32+0100
; FORMAT={-:-/ absolute / metric / decimal}
; #@! TF.CreationDate,2025-08-05T07:58:32+01:00
; #@! TF.GenerationSoftware,Kicad,Pcbnew,9.0.3
; #@! TF.FileFunction,Plated,1,6,PTH
FMAT,2
METRIC
; #@! TA.AperFunction,Plated,PTH,ViaDrill
T1C0.300
; #@! TA.AperFunction,Plated,PTH,ComponentDrill
T2C0.800
; #@! TA.AperFunction,Plated,PTH,ComponentDrill
T3C1.000
; #@! TA.AperFunction,Plated,PTH,ComponentDrill
T4C3.200
%
G90
G05
T1
X65.763Y-62.738
X68.453Y-61.595
X73.848Y-130.49
X73.848Y-133.665
X73.853Y-128.59
X73.853Y-131.765
X73.853Y-134.94
X73.853Y-136.84
X75.287Y-104.417
X75.565Y-122.428
X75.565Y-126.873
X75.692Y-56.769
X75.692Y-58.547
X76.962Y-53.086
X76.962Y-53.975
X76.962Y-54.864
X77.597Y-139.065
X77.978Y-53.086
X77.978Y-53.975
X77.978Y-54.864
X77.978Y-113.03
X77.978Y-114.935
X78.74Y-128.905
X78.74Y-131.445
X78.74Y-133.985
X79.248Y-56.769
X79.248Y-58.547
X79.375Y-118.872
X79.375Y-123.317
X79.375Y-141.478
X79.375Y-142.24
X79.375Y-143.002
X80.01Y-101.981
X80.01Y-102.616
X80.391Y-121.562
X80.391Y-126.007
X80.645Y-101.981
X80.645Y-102.616
X81.153Y-139.065
X81.28Y-121.285
X81.28Y-122.555
X81.788Y-105.41
X81.788Y-106.68
X81.788Y-107.95
X81.788Y-109.22
X81.788Y-110.49
X81.788Y-111.76
X81.788Y-113.03
X81.788Y-114.3
X81.788Y-115.57
X81.788Y-116.84
X81.915Y-61.595
X81.915Y-141.478
X81.915Y-142.24
X81.915Y-143.002
X82.804Y-73.96
X82.804Y-75.91
X82.804Y-93.74
X82.804Y-95.69
X83.312Y-74.93
X83.82Y-128.905
X83.82Y-131.445
X83.82Y-133.985
X83.947Y-121.285
X83.947Y-122.555
X85.344Y-116.84
X85.725Y-121.285
X85.725Y-122.555
X86.36Y-131.318
X86.487Y-110.363
X86.741Y-120.015
X87.249Y-135.89
X87.249Y-136.652
X87.249Y-137.414
X87.249Y-140.843
X87.249Y-141.605
X87.249Y-142.367
X87.376Y-120.015
X87.503Y-121.285
X87.503Y-122.555
X88.392Y-105.41
X88.392Y-106.68
X88.392Y-107.95
X88.392Y-109.22
X88.392Y-111.76
X88.392Y-114.3
X88.392Y-116.84
X89.218Y-131.762
X89.281Y-135.89
X89.281Y-136.652
X89.281Y-137.414
X89.281Y-140.843
X89.281Y-141.605
X89.281Y-142.367
X90.17Y-121.285
X90.17Y-122.555
X90.297Y-101.6
X92.71Y-109.982
X93.218Y-110.49
X94.488Y-71.12
X94.488Y-88.9
X97.917Y-109.728
X98.552Y-109.855
X100.584Y-140.97
X102.87Y-99.06
X102.87Y-101.409
X104.267Y-133.35
X105.283Y-84.074
X105.283Y-86.106
X105.688Y-92.71
X106.045Y-84.074
X106.045Y-86.106
X106.288Y-103.907
X106.553Y-96.52
X106.807Y-84.074
X106.807Y-86.106
X107.114Y-104.565
X107.696Y-101.661
X109.728Y-62.484
X109.728Y-63.119
X110.363Y-62.484
X110.363Y-63.119
X110.49Y-56.515
X110.49Y-60.325
X110.49Y-69.85
X110.49Y-73.66
X112.014Y-99.761
X112.014Y-101.661
X113.03Y-82.548
X113.411Y-85.85
X113.411Y-89.406
X114.109Y-106.68
X114.427Y-99.798
X114.935Y-117.983
X116.65Y-113.665
X116.84Y-82.548
X116.84Y-85.088
X116.84Y-87.628
X116.84Y-90.168
X116.84Y-92.708
X116.84Y-95.248
X116.84Y-117.983
X117.102Y-114.245
X117.2Y-123.698
X117.75Y-113.665
X118.427Y-114.264
X118.745Y-117.983
X118.845Y-113.665
X120.015Y-119.761
X120.5Y-123.698
X120.65Y-117.983
X121.05Y-113.919
X121.92Y-60.579
X122.428Y-61.087
X123.19Y-130.81
X125.095Y-110.236
X125.095Y-115.189
X125.095Y-118.491
X125.095Y-122.793
X125.095Y-126.746
X125.095Y-131.064
X126.047Y-122.301
X126.238Y-120.142
X126.682Y-110.744
X126.682Y-114.046
X126.682Y-118.999
X126.682Y-122.301
X126.682Y-125.158
X126.682Y-130.556
X126.936Y-91.25
X127.127Y-116.078
X127.212Y-119.65
X127.317Y-110.744
X127.317Y-114.046
X127.317Y-118.999
X127.317Y-122.301
X127.317Y-127.254
X127.317Y-130.556
X127.953Y-110.744
X127.953Y-114.046
X127.953Y-118.999
X127.953Y-122.301
X127.953Y-127.254
X127.953Y-130.556
X128.016Y-80.137
X128.588Y-110.744
X128.588Y-114.046
X128.588Y-118.999
X128.588Y-122.301
X128.588Y-127.254
X128.588Y-130.556
X129.215Y-122.301
X129.222Y-110.744
X129.222Y-114.046
X129.222Y-118.999
X129.222Y-127.254
X129.222Y-130.556
X129.857Y-110.744
X129.857Y-114.046
X129.857Y-118.999
X129.857Y-122.301
X129.857Y-127.254
X129.857Y-130.556
X130.048Y-121.285
X130.493Y-110.744
X130.493Y-114.046
X130.493Y-118.999
X130.493Y-122.301
X130.493Y-127.254
X130.493Y-130.556
X130.937Y-107.442
X131.127Y-110.744
X131.127Y-114.046
X131.127Y-118.999
X131.127Y-127.254
X131.127Y-130.556
X131.191Y-74.549
X131.762Y-110.744
X131.762Y-115.951
X131.762Y-122.301
X131.762Y-127.254
X131.762Y-130.556
X131.764Y-118.999
X136.017Y-109.29
X136.017Y-110.09
X136.017Y-110.89
X136.017Y-111.69
X136.017Y-113.1
X136.017Y-113.9
X136.017Y-114.7
X136.017Y-115.5
X136.092Y-67.639
X136.398Y-112.154
X136.525Y-125.73
X136.75Y-70.5
X136.75Y-74.0
X136.75Y-78.5
X136.75Y-82.0
X136.75Y-86.0
X136.75Y-89.5
X136.75Y-91.0
X136.75Y-94.5
X136.95Y-67.437
X137.033Y-66.548
X137.287Y-116.586
X137.414Y-61.468
X137.414Y-62.23
X137.414Y-62.992
X137.414Y-83.058
X137.477Y-122.555
X137.668Y-117.094
X137.784Y-66.598
X137.905Y-67.657
X138.0Y-70.25
X138.0Y-74.25
X138.0Y-78.25
X138.0Y-80.25
X138.0Y-82.25
X138.0Y-84.25
X138.0Y-86.25
X138.0Y-92.25
X138.049Y-117.602
X138.43Y-68.072
X138.43Y-118.11
X138.557Y-130.81
X138.557Y-131.572
X138.557Y-132.334
X138.748Y-122.555
X138.75Y-70.25
X138.75Y-74.25
X138.75Y-76.25
X138.75Y-78.25
X138.75Y-82.25
X138.75Y-86.25
X138.75Y-88.25
X138.75Y-90.25
X138.75Y-92.25
X138.938Y-67.691
X139.192Y-115.189
X139.192Y-115.951
X139.192Y-116.713
X139.192Y-117.475
X139.446Y-61.468
X139.446Y-62.23
X139.446Y-62.992
X139.446Y-67.183
X139.5Y-74.25
X139.5Y-78.25
X139.5Y-80.25
X139.5Y-82.25
X139.5Y-84.25
X139.5Y-86.25
X139.5Y-88.25
X139.5Y-90.25
X139.5Y-92.25
X139.5Y-94.25
X139.66Y-116.326
X139.827Y-69.215
X140.017Y-122.555
X140.25Y-72.25
X140.25Y-76.25
X140.25Y-78.25
X140.25Y-80.25
X140.25Y-82.25
X140.25Y-84.25
X140.25Y-86.25
X140.25Y-88.25
X140.25Y-90.25
X140.25Y-92.25
X140.25Y-94.25
X140.589Y-130.81
X140.589Y-131.572
X140.589Y-132.334
X141.224Y-96.774
X141.287Y-122.555
X141.478Y-67.691
X141.716Y-97.266
X141.732Y-115.189
X141.732Y-115.951
X141.732Y-116.713
X141.732Y-117.475
X142.165Y-97.704
X142.284Y-69.216
X142.558Y-122.047
X142.94Y-81.25
X143.0Y-72.0
X143.0Y-95.25
X143.185Y-122.555
X143.256Y-69.85
X143.5Y-94.75
X143.51Y-100.457
X143.51Y-101.092
X143.75Y-93.75
X143.848Y-74.545
X144.0Y-76.25
X144.145Y-51.8
X144.145Y-100.457
X144.145Y-101.092
X144.189Y-73.098
X144.272Y-115.189
X144.272Y-115.951
X144.272Y-116.713
X144.272Y-117.475
X144.28Y-80.25
X144.399Y-94.488
X144.463Y-122.555
X144.5Y-71.75
X144.5Y-91.25
X144.5Y-92.25
X144.753Y-79.255
X144.822Y-77.955
X144.847Y-69.919
X145.399Y-85.75
X145.454Y-70.248
X145.5Y-89.25
X145.5Y-94.75
X145.732Y-122.555
X145.923Y-84.25
X146.0Y-88.75
X146.0Y-92.25
X146.0Y-96.0
X146.0Y-99.5
X146.0Y-101.0
X146.0Y-101.75
X146.0Y-102.5
X146.25Y-72.5
X146.25Y-75.438
X146.438Y-70.469
X146.447Y-73.902
X146.492Y-88.25
X146.75Y-63.0
X146.812Y-115.189
X146.812Y-115.951
X146.812Y-116.713
X146.812Y-117.475
X146.939Y-75.438
X146.992Y-96.282
X147.0Y-70.75
X147.0Y-80.25
X147.002Y-122.555
X147.055Y-87.75
X147.2Y-133.0
X147.244Y-89.1
X147.25Y-88.5
X147.25Y-91.25
X147.254Y-95.742
X147.32Y-139.446
X147.32Y-140.208
X147.32Y-140.97
X147.5Y-64.25
X147.5Y-65.0
X147.5Y-66.5
X147.5Y-77.25
X147.5Y-92.25
X147.5Y-93.75
X147.75Y-84.75
X147.787Y-73.848
X147.956Y-71.931
X148.0Y-92.75
X148.0Y-95.75
X148.0Y-99.5
X148.0Y-139.0
X148.0Y-139.8
X148.0Y-140.6
X148.0Y-141.4
X148.25Y-88.75
X148.25Y-103.0
X148.272Y-122.555
X148.348Y-78.258
X148.406Y-82.501
X148.704Y-74.422
X148.733Y-90.25
X149.0Y-71.75
X149.0Y-93.25
X149.225Y-90.75
X149.25Y-76.5
X149.281Y-92.688
X149.352Y-115.189
X149.352Y-115.951
X149.352Y-116.713
X149.352Y-117.475
X149.5Y-64.25
X149.5Y-65.0
X149.5Y-69.75
X149.542Y-122.555
X149.742Y-84.369
X149.75Y-75.93
X149.75Y-78.25
X149.987Y-110.109
X149.992Y-70.692
X150.0Y-95.25
X150.0Y-100.25
X150.008Y-88.25
X150.152Y-72.106
X150.17Y-122.555
X150.25Y-63.0
X150.4Y-133.8
X150.4Y-134.6
X150.4Y-135.4
X150.495Y-56.642
X150.5Y-73.5
X151.0Y-70.2
X151.0Y-74.946
X151.0Y-77.0
X151.447Y-122.555
X151.5Y-75.962
X151.5Y-91.75
X151.5Y-93.152
X151.749Y-89.535
X151.75Y-78.75
X151.75Y-103.0
X151.892Y-115.189
X151.892Y-116.713
X151.892Y-117.475
X152.0Y-70.25
X152.0Y-99.5
X152.0Y-101.0
X152.0Y-101.75
X152.062Y-92.031
X152.5Y-78.75
X152.5Y-91.25
X152.5Y-96.774
X152.654Y-127.254
X152.695Y-54.864
X152.718Y-122.555
X153.035Y-116.84
X153.396Y-122.452
X153.5Y-64.25
X153.5Y-65.75
X153.5Y-73.5
X153.5Y-82.25
X153.5Y-83.0
X153.5Y-90.0
X153.5Y-91.75
X153.75Y-63.0
X153.75Y-66.5
X153.837Y-57.554
X153.934Y-88.25
X153.987Y-122.555
X153.995Y-58.42
X154.0Y-70.2
X154.0Y-96.25
X154.4Y-139.8
X154.4Y-140.6
X154.432Y-115.189
X154.432Y-115.951
X154.432Y-116.713
X154.432Y-117.475
X154.5Y-90.25
X154.5Y-92.909
X154.5Y-94.25
X154.5Y-95.75
X154.6Y-82.931
X154.623Y-122.555
X154.645Y-58.42
X155.067Y-115.57
X155.25Y-78.464
X155.448Y-86.36
X155.448Y-122.809
X155.5Y-66.5
X155.75Y-89.0
X156.0Y-80.75
X156.0Y-100.25
X156.0Y-101.0
X156.083Y-115.697
X156.25Y-103.0
X156.496Y-73.25
X156.496Y-75.962
X156.5Y-89.043
X156.8Y-134.6
X156.8Y-135.4
X157.0Y-90.75
X157.099Y-58.801
X157.162Y-122.555
X157.25Y-63.0
X157.48Y-81.153
X157.5Y-65.0
X157.5Y-75.606
X157.745Y-58.801
X158.0Y-74.604
X158.0Y-100.25
X158.061Y-85.015
X158.115Y-82.042
X158.395Y-58.801
X158.433Y-122.555
X158.477Y-85.508
X158.5Y-86.852
X158.623Y-90.932
X158.623Y-110.109
X158.877Y-115.189
X158.877Y-115.951
X158.877Y-116.713
X158.877Y-117.475
X158.963Y-84.012
X159.045Y-58.801
X159.345Y-116.338
X159.5Y-64.25
X159.501Y-88.687
X159.501Y-86.995
X159.6Y-141.605
X159.695Y-54.229
X159.695Y-58.801
X159.702Y-122.555
X159.724Y-133.564
X159.75Y-103.0
X159.993Y-82.464
X159.993Y-86.464
X160.0Y-80.25
X160.0Y-101.0
X160.0Y-133.0
X160.345Y-54.229
X160.4Y-141.605
X160.5Y-69.216
X160.8Y-139.0
X160.8Y-139.8
X160.8Y-140.6
X160.972Y-122.555
X160.995Y-54.229
X161.0Y-72.5
X161.0Y-95.25
X161.152Y-90.464
X161.25Y-93.0
X161.348Y-88.25
X161.417Y-115.189
X161.417Y-115.951
X161.417Y-116.713
X161.417Y-117.475
X161.491Y-138.991
X161.5Y-65.75
X161.5Y-94.75
X161.645Y-54.229
X161.645Y-58.801
X161.75Y-71.0
X161.916Y-116.38
X161.939Y-87.5
X162.0Y-96.774
X162.179Y-135.52
X162.243Y-122.555
X162.25Y-79.75
X162.295Y-54.229
X162.295Y-58.801
X162.5Y-76.327
X162.5Y-83.448
X162.75Y-81.75
X162.87Y-122.555
X162.941Y-54.737
X162.941Y-58.293
X162.941Y-117.602
X163.0Y-79.75
X163.2Y-133.0
X163.2Y-133.8
X163.2Y-134.6
X163.2Y-135.4
X163.25Y-72.5
X163.322Y-141.351
X163.5Y-65.75
X163.5Y-70.2
X163.5Y-85.5
X163.75Y-63.0
X163.75Y-81.25
X163.957Y-115.189
X163.957Y-115.951
X163.957Y-116.713
X163.957Y-117.475
X164.0Y-72.5
X164.0Y-95.5
X164.0Y-99.5
X164.0Y-101.75
X164.0Y-141.4
X164.084Y-132.759
X164.147Y-122.555
X164.338Y-76.835
X164.338Y-110.236
X164.465Y-134.874
X164.846Y-69.216
X164.862Y-73.264
X164.879Y-85.25
X165.354Y-70.199
X165.354Y-72.5
X165.4Y-86.295
X165.417Y-122.555
X165.5Y-65.0
X165.5Y-66.5
X165.5Y-82.25
X165.877Y-88.25
X165.989Y-121.158
X166.0Y-81.75
X166.0Y-85.75
X166.0Y-90.0
X166.0Y-96.774
X166.0Y-103.0
X166.014Y-80.264
X166.444Y-71.11
X166.444Y-78.0
X166.497Y-115.189
X166.497Y-115.951
X166.497Y-116.713
X166.497Y-117.475
X166.688Y-122.555
X166.75Y-95.5
X166.751Y-58.42
X166.751Y-60.325
X166.827Y-139.268
X166.936Y-70.636
X166.936Y-77.327
X167.25Y-63.0
X167.48Y-78.108
X167.497Y-90.104
X167.5Y-65.75
X167.5Y-66.5
X167.5Y-80.5
X167.5Y-91.186
X167.508Y-83.5
X167.521Y-72.538
X167.521Y-89.448
X167.998Y-77.752
X168.0Y-77.089
X168.0Y-100.25
X168.191Y-72.217
X168.25Y-103.0
X168.442Y-71.641
X168.593Y-122.555
X168.64Y-73.263
X168.64Y-87.75
X168.758Y-79.098
X169.037Y-115.189
X169.037Y-115.951
X169.037Y-116.713
X169.037Y-117.475
X169.291Y-120.777
X169.472Y-117.126
X169.5Y-65.0
X169.713Y-76.75
X169.75Y-83.75
X169.75Y-93.75
X169.862Y-122.555
X169.926Y-120.777
X170.19Y-95.139
X170.307Y-52.705
X170.307Y-58.42
X170.307Y-60.325
X170.307Y-65.405
X170.498Y-122.555
X170.5Y-74.819
X170.815Y-65.786
X171.069Y-120.523
X171.577Y-115.189
X171.577Y-115.951
X171.577Y-116.713
X171.577Y-117.475
X171.704Y-120.396
X171.75Y-103.0
X171.767Y-122.555
X171.831Y-64.77
X171.831Y-65.766
X172.2Y-133.0
X172.25Y-96.5
X173.0Y-139.0
X173.0Y-139.8
X173.0Y-140.6
X173.037Y-122.555
X173.25Y-71.75
X173.25Y-73.75
X173.25Y-75.75
X173.25Y-77.75
X173.25Y-79.75
X173.25Y-81.75
X173.25Y-83.75
X173.25Y-85.75
X173.25Y-87.75
X173.25Y-89.75
X173.25Y-91.75
X173.25Y-93.75
X173.25Y-95.75
X173.315Y-57.531
X174.0Y-73.75
X174.0Y-75.75
X174.0Y-77.75
X174.0Y-81.75
X174.0Y-83.75
X174.0Y-85.75
X174.0Y-87.75
X174.0Y-89.75
X174.0Y-91.75
X174.0Y-93.75
X174.0Y-95.75
X174.117Y-115.189
X174.117Y-115.951
X174.117Y-116.713
X174.117Y-117.475
X174.244Y-99.314
X174.244Y-99.949
X174.244Y-120.396
X174.585Y-115.564
X174.585Y-117.088
X174.75Y-71.75
X174.75Y-73.75
X174.75Y-75.75
X174.75Y-79.75
X174.75Y-81.75
X174.75Y-83.75
X174.75Y-85.75
X174.75Y-87.75
X174.75Y-89.75
X174.75Y-91.75
X174.75Y-93.75
X174.75Y-95.75
X174.879Y-99.314
X174.879Y-99.949
X174.879Y-120.142
X175.4Y-133.0
X175.4Y-133.8
X175.4Y-134.6
X175.4Y-135.4
X175.5Y-71.75
X175.5Y-73.75
X175.5Y-75.75
X175.5Y-79.75
X175.5Y-81.75
X175.5Y-83.75
X175.5Y-85.75
X175.5Y-89.75
X175.5Y-93.75
X175.5Y-95.75
X175.641Y-119.761
X176.2Y-139.0
X176.2Y-139.8
X176.2Y-140.6
X176.2Y-141.4
X176.25Y-83.75
X176.276Y-119.761
X176.75Y-71.902
X176.75Y-75.5
X176.75Y-78.0
X176.75Y-81.5
X176.75Y-86.0
X176.75Y-89.5
X176.75Y-92.0
X176.75Y-95.5
X177.165Y-96.012
X177.482Y-122.555
X178.0Y-96.75
X178.054Y-119.38
X178.562Y-97.028
X178.562Y-115.189
X178.562Y-115.951
X178.562Y-116.713
X178.562Y-117.475
X178.6Y-133.0
X178.6Y-133.8
X178.6Y-134.6
X178.6Y-135.4
X178.689Y-71.75
X178.752Y-122.555
X178.816Y-119.38
X179.197Y-116.586
X179.4Y-139.0
X179.4Y-139.8
X179.4Y-140.6
X179.4Y-141.4
X179.451Y-118.999
X179.578Y-90.25
X179.832Y-138.43
X179.959Y-77.343
X180.022Y-122.555
X180.086Y-119.38
X180.34Y-74.041
X180.594Y-118.618
X180.721Y-88.773
X180.721Y-89.373
X180.848Y-73.406
X181.102Y-115.189
X181.102Y-115.951
X181.102Y-116.713
X181.102Y-117.475
X181.102Y-136.779
X181.292Y-122.555
X181.319Y-77.597
X181.321Y-94.742
X181.356Y-118.745
X181.356Y-136.144
X181.61Y-116.332
X181.676Y-93.262
X181.8Y-133.8
X181.8Y-134.6
X181.8Y-135.4
X181.821Y-81.788
X181.821Y-94.361
X181.821Y-77.974
X181.864Y-132.969
X181.943Y-141.399
X181.991Y-100.584
X181.991Y-118.11
X182.245Y-93.472
X182.321Y-94.742
X182.325Y-77.593
X182.562Y-122.555
X182.6Y-140.6
X182.6Y-141.4
X182.626Y-118.364
X182.821Y-77.978
X182.821Y-93.853
X183.197Y-122.555
X183.321Y-94.742
X183.642Y-115.189
X183.642Y-116.713
X183.642Y-117.475
X183.821Y-93.853
X183.821Y-77.597
X184.468Y-122.555
X184.531Y-89.832
X184.658Y-85.852
X184.658Y-87.157
X184.658Y-87.757
X184.658Y-100.12
X184.821Y-77.597
X185.737Y-122.555
X185.821Y-77.597
X186.182Y-115.951
X186.182Y-117.475
X186.292Y-94.143
X186.309Y-138.684
X186.321Y-94.742
X186.563Y-90.17
X186.69Y-117.983
X186.817Y-93.853
X186.821Y-77.597
X186.944Y-52.451
X186.944Y-53.213
X186.944Y-53.975
X186.944Y-54.737
X186.944Y-55.499
X186.991Y-101.981
X187.007Y-122.555
X187.302Y-80.414
X187.321Y-77.978
X187.325Y-70.739
X188.278Y-122.555
X188.321Y-77.597
X188.321Y-94.742
X188.341Y-72.136
X188.559Y-120.868
X188.722Y-115.951
X188.722Y-117.475
X189.1Y-119.631
X189.202Y-118.834
X189.23Y-116.459
X189.23Y-120.269
X189.321Y-77.597
X189.321Y-94.742
X189.547Y-115.189
X189.547Y-122.555
X189.674Y-117.665
X189.738Y-118.491
X190.183Y-122.555
X190.246Y-52.451
X190.246Y-53.213
X190.246Y-53.975
X190.246Y-54.737
X190.246Y-55.499
X190.321Y-77.597
X190.373Y-117.602
X190.627Y-138.557
X190.627Y-139.192
X191.262Y-115.189
X191.262Y-116.713
X191.262Y-138.557
X191.262Y-139.192
X191.321Y-77.978
X191.452Y-122.555
X191.821Y-93.853
X191.821Y-77.597
X192.321Y-77.978
X192.321Y-81.788
X192.321Y-94.742
X192.722Y-122.555
X192.821Y-84.014
X192.821Y-93.853
X193.802Y-115.189
X193.802Y-115.951
X193.802Y-116.713
X195.392Y-134.493
X195.392Y-139.954
X196.342Y-72.009
X196.342Y-139.065
X196.342Y-144.526
X196.589Y-135.763
X196.589Y-141.224
X197.292Y-134.493
X197.292Y-139.065
X197.292Y-139.954
X197.292Y-144.46
X199.009Y-81.915
X199.136Y-86.68
X199.136Y-88.58
X200.279Y-91.74
X200.279Y-92.392
X200.279Y-93.027
X200.279Y-93.662
X200.279Y-94.297
X200.279Y-94.932
X200.279Y-95.567
X200.279Y-96.203
X200.279Y-96.837
X200.279Y-97.472
X200.279Y-98.108
X200.279Y-98.742
X200.279Y-99.377
X200.279Y-100.012
X200.279Y-100.647
X200.279Y-101.282
X200.279Y-101.917
X200.279Y-102.552
X200.279Y-103.188
X200.279Y-103.822
X200.279Y-104.457
X200.279Y-105.093
X200.279Y-105.727
X200.279Y-106.362
X200.279Y-117.792
X200.279Y-119.697
X200.279Y-121.602
X200.279Y-123.507
X200.279Y-124.777
X200.279Y-125.412
X200.279Y-126.047
X200.279Y-126.682
X200.279Y-127.31
X200.279Y-127.953
X200.279Y-128.588
X200.279Y-129.23
X200.279Y-129.857
X200.279Y-130.485
X200.279Y-131.127
X200.279Y-132.398
X200.386Y-72.03
X200.406Y-56.832
X200.406Y-57.467
X200.406Y-58.102
X200.406Y-58.737
X200.406Y-59.372
X200.406Y-60.008
X200.406Y-60.642
X200.406Y-61.277
X200.406Y-61.912
X200.406Y-62.547
X200.406Y-63.182
X200.406Y-63.817
X200.406Y-64.453
X200.406Y-65.087
X200.406Y-65.722
X200.406Y-66.358
X200.406Y-66.992
X200.406Y-67.627
X200.406Y-68.263
X200.406Y-68.897
X200.406Y-69.532
X200.406Y-70.167
X200.406Y-70.802
X200.406Y-71.43
X201.041Y-56.388
X202.311Y-80.01
X202.311Y-85.344
X202.819Y-83.82
X203.073Y-107.95
X203.454Y-86.68
X203.454Y-88.58
X204.216Y-138.049
X204.216Y-141.351
X204.851Y-76.52
X204.851Y-78.42
X204.851Y-82.55
X204.851Y-83.5
X204.851Y-87.63
X204.851Y-88.58
X204.978Y-138.049
X204.978Y-141.351
X205.74Y-138.049
X205.74Y-141.351
X206.121Y-80.01
X206.121Y-85.344
X206.502Y-138.049
X206.502Y-141.351
X206.629Y-71.501
X207.01Y-108.458
X207.264Y-138.049
X207.264Y-141.351
X207.391Y-58.737
X207.391Y-60.642
X207.391Y-62.547
X207.391Y-65.722
X207.391Y-67.627
X207.391Y-69.532
X207.391Y-91.757
X207.391Y-93.662
X207.391Y-95.567
X207.391Y-97.472
X207.391Y-100.647
X207.391Y-102.552
X207.391Y-104.457
X207.391Y-106.362
X207.391Y-117.792
X207.391Y-119.697
X207.391Y-121.602
X207.391Y-123.507
X207.391Y-126.682
X207.391Y-128.588
X207.391Y-130.493
X207.391Y-132.398
X207.454Y-71.438
X208.026Y-84.455
X208.026Y-89.535
X209.169Y-76.52
X209.169Y-78.42
X209.169Y-81.6
X209.169Y-86.68
X209.169Y-88.58
X209.677Y-64.453
X209.677Y-65.087
X209.677Y-66.358
X209.677Y-66.992
X209.677Y-68.263
X209.677Y-68.897
X209.677Y-70.167
X209.677Y-70.802
X209.677Y-99.377
X209.677Y-100.012
X209.677Y-101.282
X209.677Y-101.917
X209.677Y-103.188
X209.677Y-103.822
X209.677Y-105.093
X209.677Y-105.727
X209.677Y-125.42
X209.677Y-126.047
X209.677Y-127.317
X209.677Y-127.953
X209.677Y-129.222
X209.677Y-129.857
X209.677Y-131.127
T2
X85.09Y-53.34
X85.09Y-55.88
X85.09Y-58.42
X85.09Y-60.96
X85.09Y-63.5
X85.09Y-66.04
X85.09Y-68.58
X85.09Y-71.12
X85.09Y-73.66
X85.09Y-76.2
X85.09Y-78.74
X85.09Y-81.28
X85.09Y-83.82
X85.09Y-86.36
X85.09Y-88.9
X85.09Y-91.44
X85.09Y-93.98
X85.09Y-96.52
X85.09Y-99.06
X85.09Y-101.6
X88.9Y-63.5
X88.9Y-66.04
X88.9Y-68.58
X88.9Y-71.12
X88.9Y-81.28
X88.9Y-83.82
X88.9Y-86.36
X88.9Y-88.9
X95.25Y-107.95
X95.25Y-110.49
X95.25Y-113.03
X95.25Y-115.57
X95.25Y-118.11
X95.25Y-120.65
X95.25Y-123.19
X95.25Y-125.73
X95.25Y-128.27
X95.25Y-130.81
X95.25Y-133.35
X95.25Y-135.89
X95.25Y-138.43
X95.25Y-140.97
X96.52Y-63.5
X96.52Y-66.04
X96.52Y-68.58
X96.52Y-71.12
X96.52Y-81.28
X96.52Y-83.82
X96.52Y-86.36
X96.52Y-88.9
X100.33Y-53.34
X100.33Y-55.88
X100.33Y-58.42
X100.33Y-60.96
X100.33Y-63.5
X100.33Y-66.04
X100.33Y-68.58
X100.33Y-71.12
X100.33Y-73.66
X100.33Y-76.2
X100.33Y-78.74
X100.33Y-81.28
X100.33Y-83.82
X100.33Y-86.36
X100.33Y-88.9
X100.33Y-91.44
X100.33Y-93.98
X100.33Y-96.52
X100.33Y-99.06
X100.33Y-101.6
X106.68Y-55.245
X106.68Y-62.865
X106.68Y-68.58
X106.68Y-76.2
X110.49Y-107.95
X110.49Y-110.49
X110.49Y-113.03
X110.49Y-115.57
X110.49Y-118.11
X110.49Y-120.65
X110.49Y-123.19
X110.49Y-125.73
X110.49Y-128.27
X110.49Y-130.81
X110.49Y-133.35
X110.49Y-135.89
X110.49Y-138.43
X110.49Y-140.97
X114.3Y-55.245
X114.3Y-62.865
X114.3Y-68.58
X114.3Y-76.2
X121.92Y-55.245
X121.92Y-62.865
X121.92Y-68.58
X121.92Y-76.2
T3
X67.09Y-114.54
X67.09Y-116.83
X67.09Y-119.12
X67.09Y-121.41
X67.09Y-123.7
X68.99Y-115.685
X68.99Y-117.975
X68.99Y-120.265
X68.99Y-122.555
X68.99Y-124.845
X70.89Y-114.54
X70.89Y-116.83
X70.89Y-119.12
X70.89Y-121.41
X70.89Y-123.7
X72.559Y-69.41
X72.559Y-71.36
X72.559Y-73.96
X72.559Y-75.91
X72.559Y-89.19
X72.559Y-91.14
X72.559Y-93.74
X72.559Y-95.69
X75.059Y-69.41
X75.059Y-75.91
X75.059Y-89.19
X75.059Y-95.69
X128.265Y-62.865
X128.265Y-67.31
X130.175Y-53.34
X130.175Y-57.785
X130.805Y-62.865
X130.805Y-67.31
X132.715Y-53.34
X132.715Y-57.785
X135.255Y-53.34
X135.255Y-57.785
X137.795Y-53.34
X137.795Y-57.785
X140.335Y-53.34
X140.335Y-57.785
X142.875Y-57.785
X213.36Y-58.42
X213.36Y-60.96
X213.36Y-63.5
X213.36Y-66.04
X213.36Y-68.58
X213.36Y-71.12
X213.36Y-73.66
X213.36Y-76.2
X213.36Y-78.74
X213.36Y-81.28
X213.36Y-83.82
X213.36Y-86.36
X213.36Y-88.9
X213.36Y-91.44
X213.36Y-93.98
X213.36Y-96.52
X213.36Y-99.06
X213.36Y-101.6
X213.36Y-104.14
X213.36Y-106.68
X213.36Y-109.22
X213.36Y-111.76
X213.36Y-114.3
X213.36Y-116.84
X213.36Y-119.38
X213.36Y-121.92
X213.36Y-124.46
X213.36Y-127.0
X213.36Y-129.54
X213.36Y-132.08
X213.36Y-134.62
X213.36Y-137.16
X215.9Y-58.42
X215.9Y-60.96
X215.9Y-63.5
X215.9Y-66.04
X215.9Y-68.58
X215.9Y-71.12
X215.9Y-73.66
X215.9Y-76.2
X215.9Y-78.74
X215.9Y-81.28
X215.9Y-83.82
X215.9Y-86.36
X215.9Y-88.9
X215.9Y-91.44
X215.9Y-93.98
X215.9Y-96.52
X215.9Y-99.06
X215.9Y-101.6
X215.9Y-104.14
X215.9Y-106.68
X215.9Y-109.22
X215.9Y-111.76
X215.9Y-114.3
X215.9Y-116.84
X215.9Y-119.38
X215.9Y-121.92
X215.9Y-124.46
X215.9Y-127.0
X215.9Y-129.54
X215.9Y-132.08
X215.9Y-134.62
X215.9Y-137.16
X218.44Y-58.42
X218.44Y-60.96
X218.44Y-63.5
X218.44Y-66.04
X218.44Y-68.58
X218.44Y-71.12
X218.44Y-73.66
X218.44Y-76.2
X218.44Y-78.74
X218.44Y-81.28
X218.44Y-83.82
X218.44Y-86.36
X218.44Y-88.9
X218.44Y-91.44
X218.44Y-93.98
X218.44Y-96.52
X218.44Y-99.06
X218.44Y-101.6
X218.44Y-104.14
X218.44Y-106.68
X218.44Y-109.22
X218.44Y-111.76
X218.44Y-114.3
X218.44Y-116.84
X218.44Y-119.38
X218.44Y-121.92
X218.44Y-124.46
X218.44Y-127.0
X218.44Y-129.54
X218.44Y-132.08
X218.44Y-134.62
X218.44Y-137.16
T4
X69.0Y-106.885
X69.0Y-131.885
T3
X68.759Y-71.91G85X68.759Y-73.41
G05
X68.759Y-91.69G85X68.759Y-93.19
G05
X68.809Y-65.91G85X70.309Y-65.91
G05
X68.809Y-79.41G85X70.309Y-79.41
G05
X68.809Y-85.69G85X70.309Y-85.69
G05
X68.809Y-99.19G85X70.309Y-99.19
G05
X135.25Y-103.5G85X137.75Y-103.5
G05
X176.75Y-62.0G85X176.75Y-64.5
G05
M30
