G04 #@! TF.GenerationSoftware,KiCad,Pcbnew,9.0.3*
G04 #@! TF.CreationDate,2025-08-05T07:58:28+01:00*
G04 #@! TF.ProjectId,Video_Card,56696465-6f5f-4436-9172-642e6b696361,1*
G04 #@! TF.SameCoordinates,Original*
G04 #@! TF.FileFunction,Soldermask,Bot*
G04 #@! TF.FilePolarity,Negative*
%FSLAX46Y46*%
G04 Gerber Fmt 4.6, Leading zero omitted, Abs format (unit mm)*
G04 Created by KiCad (PCBNEW 9.0.3) date 2025-08-05 07:58:28*
%MOMM*%
%LPD*%
G01*
G04 APERTURE LIST*
G04 Aperture macros list*
%AMFreePoly0*
4,1,6,1.000000,0.000000,0.500000,-0.750000,-0.500000,-0.750000,-0.500000,0.750000,0.500000,0.750000,1.000000,0.000000,1.000000,0.000000,$1*%
%AMFreePoly1*
4,1,6,0.500000,-0.750000,-0.650000,-0.750000,-0.150000,0.000000,-0.650000,0.750000,0.500000,0.750000,0.500000,-0.750000,0.500000,-0.750000,$1*%
G04 Aperture macros list end*
%ADD10R,1.700000X1.700000*%
%ADD11C,1.700000*%
%ADD12R,3.500000X1.800000*%
%ADD13R,1.800000X3.500000*%
%ADD14R,1.600000X1.600000*%
%ADD15C,1.600000*%
%ADD16C,3.200000*%
%ADD17R,2.032000X1.292860*%
%ADD18O,2.032000X1.292860*%
%ADD19R,2.032000X1.270000*%
%ADD20O,2.032000X1.270000*%
%ADD21C,5.000000*%
%ADD22R,7.000000X2.000000*%
%ADD23R,2.000000X7.000000*%
%ADD24C,2.850000*%
%ADD25R,1.550000X1.550000*%
%ADD26C,1.550000*%
%ADD27R,1.025000X1.400000*%
%ADD28R,1.400000X1.025000*%
%ADD29FreePoly0,90.000000*%
%ADD30FreePoly1,90.000000*%
%ADD31R,0.760000X0.430000*%
%ADD32R,0.430000X0.760000*%
%ADD33C,1.000000*%
G04 APERTURE END LIST*
G36*
X144895000Y-54565000D02*
G01*
X143395000Y-54565000D01*
X143395000Y-52115000D01*
X144895000Y-52115000D01*
X144895000Y-54565000D01*
G37*
D10*
X130175000Y-53340000D03*
D11*
X132715000Y-53340000D03*
X135255000Y-53340000D03*
X137795000Y-53340000D03*
X140335000Y-53340000D03*
D12*
X69559200Y-85690000D03*
D13*
X68759200Y-92440000D03*
D12*
X69559200Y-99190000D03*
D14*
X72559200Y-93740000D03*
D15*
X72559200Y-91140000D03*
X72559200Y-95690000D03*
X72559200Y-89190000D03*
X75059200Y-95690000D03*
X75059200Y-89190000D03*
D14*
X106680000Y-76200000D03*
X114300000Y-76200000D03*
D15*
X121920000Y-76200000D03*
X121920000Y-68580000D03*
X106680000Y-68580000D03*
X114300000Y-68580000D03*
D16*
X66980000Y-53510000D03*
D10*
X130175000Y-57785000D03*
D11*
X132715000Y-57785000D03*
X135255000Y-57785000D03*
X137795000Y-57785000D03*
X140335000Y-57785000D03*
X142875000Y-57785000D03*
D14*
X106680000Y-62865000D03*
X114300000Y-62865000D03*
D15*
X121920000Y-62865000D03*
X121920000Y-55245000D03*
X106680000Y-55245000D03*
X114300000Y-55245000D03*
D17*
X96520000Y-88900000D03*
D18*
X96520000Y-86360000D03*
X96520000Y-83820000D03*
X96520000Y-81280000D03*
X88900000Y-81280000D03*
X88900000Y-83820000D03*
X88900000Y-86360000D03*
X88900000Y-88900000D03*
D12*
X69559200Y-65910000D03*
D13*
X68759200Y-72660000D03*
D12*
X69559200Y-79410000D03*
D14*
X72559200Y-73960000D03*
D15*
X72559200Y-71360000D03*
X72559200Y-75910000D03*
X72559200Y-69410000D03*
X75059200Y-75910000D03*
X75059200Y-69410000D03*
D19*
X100330000Y-101600000D03*
D20*
X100330000Y-99060000D03*
X100330000Y-96520000D03*
X100330000Y-93980000D03*
X100330000Y-91440000D03*
X100330000Y-88900000D03*
X100330000Y-86360000D03*
X100330000Y-83820000D03*
X100330000Y-81280000D03*
X100330000Y-78740000D03*
X100330000Y-76200000D03*
X100330000Y-73660000D03*
X100330000Y-71120000D03*
X100330000Y-68580000D03*
X100330000Y-66040000D03*
X100330000Y-63500000D03*
X100330000Y-60960000D03*
X100330000Y-58420000D03*
X100330000Y-55880000D03*
X100330000Y-53340000D03*
X85090000Y-53340000D03*
X85090000Y-55880000D03*
X85090000Y-58420000D03*
X85090000Y-60960000D03*
X85090000Y-63500000D03*
X85090000Y-66040000D03*
X85090000Y-68580000D03*
X85090000Y-71120000D03*
X85090000Y-73660000D03*
X85090000Y-76200000D03*
X85090000Y-78740000D03*
X85090000Y-81280000D03*
X85090000Y-83820000D03*
X85090000Y-86360000D03*
X85090000Y-88900000D03*
X85090000Y-91440000D03*
X85090000Y-93980000D03*
X85090000Y-96520000D03*
X85090000Y-99060000D03*
X85090000Y-101600000D03*
D10*
X128265000Y-62865000D03*
D11*
X130805000Y-62865000D03*
D21*
X69000331Y-106885000D03*
X69000331Y-131885000D03*
D14*
X70890331Y-123700000D03*
D15*
X70890331Y-121410000D03*
X70890331Y-119120000D03*
X70890331Y-116830000D03*
X70890331Y-114540000D03*
X68990331Y-124845000D03*
X68990331Y-122555000D03*
X68990331Y-120265000D03*
X68990331Y-117975000D03*
X68990331Y-115685000D03*
X67090331Y-123700000D03*
X67090331Y-121410000D03*
X67090331Y-119120000D03*
X67090331Y-116830000D03*
X67090331Y-114540000D03*
D17*
X96520000Y-71120000D03*
D18*
X96520000Y-68580000D03*
X96520000Y-66040000D03*
X96520000Y-63500000D03*
X88900000Y-63500000D03*
X88900000Y-66040000D03*
X88900000Y-68580000D03*
X88900000Y-71120000D03*
D22*
X136500000Y-103500000D03*
D23*
X176750000Y-63250000D03*
D19*
X110490000Y-140970000D03*
D20*
X110490000Y-138430000D03*
X110490000Y-135890000D03*
X110490000Y-133350000D03*
X110490000Y-130810000D03*
X110490000Y-128270000D03*
X110490000Y-125730000D03*
X110490000Y-123190000D03*
X110490000Y-120650000D03*
X110490000Y-118110000D03*
X110490000Y-115570000D03*
X110490000Y-113030000D03*
X110490000Y-110490000D03*
X110490000Y-107950000D03*
X95250000Y-107950000D03*
X95250000Y-110490000D03*
X95250000Y-113030000D03*
X95250000Y-115570000D03*
X95250000Y-118110000D03*
X95250000Y-120650000D03*
X95250000Y-123190000D03*
X95250000Y-125730000D03*
X95250000Y-128270000D03*
X95250000Y-130810000D03*
X95250000Y-133350000D03*
X95250000Y-135890000D03*
X95250000Y-138430000D03*
X95250000Y-140970000D03*
D24*
X220980000Y-53340000D03*
X220980000Y-142240000D03*
D25*
X218440000Y-58420000D03*
D26*
X218440000Y-60960000D03*
X218440000Y-63500000D03*
X218440000Y-66040000D03*
X218440000Y-68580000D03*
X218440000Y-71120000D03*
X218440000Y-73660000D03*
X218440000Y-76200000D03*
X218440000Y-78740000D03*
X218440000Y-81280000D03*
X218440000Y-83820000D03*
X218440000Y-86360000D03*
X218440000Y-88900000D03*
X218440000Y-91440000D03*
X218440000Y-93980000D03*
X218440000Y-96520000D03*
X218440000Y-99060000D03*
X218440000Y-101600000D03*
X218440000Y-104140000D03*
X218440000Y-106680000D03*
X218440000Y-109220000D03*
X218440000Y-111760000D03*
X218440000Y-114300000D03*
X218440000Y-116840000D03*
X218440000Y-119380000D03*
X218440000Y-121920000D03*
X218440000Y-124460000D03*
X218440000Y-127000000D03*
X218440000Y-129540000D03*
X218440000Y-132080000D03*
X218440000Y-134620000D03*
X218440000Y-137160000D03*
X215900000Y-58420000D03*
X215900000Y-60960000D03*
X215900000Y-63500000D03*
X215900000Y-66040000D03*
X215900000Y-68580000D03*
X215900000Y-71120000D03*
X215900000Y-73660000D03*
X215900000Y-76200000D03*
X215900000Y-78740000D03*
X215900000Y-81280000D03*
X215900000Y-83820000D03*
X215900000Y-86360000D03*
X215900000Y-88900000D03*
X215900000Y-91440000D03*
X215900000Y-93980000D03*
X215900000Y-96520000D03*
X215900000Y-99060000D03*
X215900000Y-101600000D03*
X215900000Y-104140000D03*
X215900000Y-106680000D03*
X215900000Y-109220000D03*
X215900000Y-111760000D03*
X215900000Y-114300000D03*
X215900000Y-116840000D03*
X215900000Y-119380000D03*
X215900000Y-121920000D03*
X215900000Y-124460000D03*
X215900000Y-127000000D03*
X215900000Y-129540000D03*
X215900000Y-132080000D03*
X215900000Y-134620000D03*
X215900000Y-137160000D03*
X213360000Y-58420000D03*
X213360000Y-60960000D03*
X213360000Y-63500000D03*
X213360000Y-66040000D03*
X213360000Y-68580000D03*
X213360000Y-71120000D03*
X213360000Y-73660000D03*
X213360000Y-76200000D03*
X213360000Y-78740000D03*
X213360000Y-81280000D03*
X213360000Y-83820000D03*
X213360000Y-86360000D03*
X213360000Y-88900000D03*
X213360000Y-91440000D03*
X213360000Y-93980000D03*
X213360000Y-96520000D03*
X213360000Y-99060000D03*
X213360000Y-101600000D03*
X213360000Y-104140000D03*
X213360000Y-106680000D03*
X213360000Y-109220000D03*
X213360000Y-111760000D03*
X213360000Y-114300000D03*
X213360000Y-116840000D03*
X213360000Y-119380000D03*
X213360000Y-121920000D03*
X213360000Y-124460000D03*
X213360000Y-127000000D03*
X213360000Y-129540000D03*
X213360000Y-132080000D03*
X213360000Y-134620000D03*
X213360000Y-137160000D03*
D16*
X66980000Y-142070000D03*
D10*
X128265000Y-67310000D03*
D11*
X130805000Y-67310000D03*
D27*
X199112500Y-141224000D03*
X200937500Y-141224000D03*
D28*
X206057500Y-121562500D03*
X206057500Y-119737500D03*
X162941000Y-55602500D03*
X162941000Y-57427500D03*
D27*
X199112500Y-137414000D03*
X200937500Y-137414000D03*
D28*
X121920000Y-70842500D03*
X121920000Y-72667500D03*
X162941000Y-120927500D03*
X162941000Y-119102500D03*
D29*
X144145000Y-54065000D03*
D30*
X144145000Y-52615000D03*
D31*
X115695000Y-82618000D03*
X115695000Y-83418000D03*
X115695000Y-84218000D03*
X115695000Y-85018000D03*
X114175000Y-85018000D03*
X114175000Y-84218000D03*
X114175000Y-83418000D03*
X114175000Y-82618000D03*
D32*
X155632000Y-126236000D03*
X154832000Y-126236000D03*
X154032000Y-126236000D03*
X153232000Y-126236000D03*
X153232000Y-124716000D03*
X154032000Y-124716000D03*
X154832000Y-124716000D03*
X155632000Y-124716000D03*
D28*
X192321000Y-80922500D03*
X192321000Y-79097500D03*
X116840000Y-115292500D03*
X116840000Y-117117500D03*
D33*
X145250000Y-98250000D03*
D28*
X177400000Y-141112500D03*
X177400000Y-139287500D03*
X120015000Y-122451500D03*
X120015000Y-120626500D03*
X185761000Y-101945500D03*
X185761000Y-100120500D03*
D27*
X97893500Y-140970000D03*
X99718500Y-140970000D03*
X199112500Y-139319000D03*
X200937500Y-139319000D03*
X91797500Y-71120000D03*
X93622500Y-71120000D03*
D28*
X125095000Y-127992500D03*
X125095000Y-129817500D03*
D31*
X135253000Y-113100000D03*
X135253000Y-113900000D03*
X135253000Y-114700000D03*
X135253000Y-115500000D03*
X133733000Y-115500000D03*
X133733000Y-114700000D03*
X133733000Y-113900000D03*
X133733000Y-113100000D03*
D28*
X110490000Y-57507500D03*
X110490000Y-59332500D03*
D31*
X183771000Y-138360000D03*
X183771000Y-137560000D03*
X183771000Y-136760000D03*
X183771000Y-135960000D03*
X185291000Y-135960000D03*
X185291000Y-136760000D03*
X185291000Y-137560000D03*
X185291000Y-138360000D03*
D32*
X150565000Y-119001000D03*
X151365000Y-119001000D03*
X152165000Y-119001000D03*
X152965000Y-119001000D03*
X152965000Y-120521000D03*
X152165000Y-120521000D03*
X151365000Y-120521000D03*
X150565000Y-120521000D03*
D28*
X184912000Y-115038500D03*
X184912000Y-116863500D03*
D33*
X186436000Y-88900000D03*
D28*
X206057500Y-128627500D03*
X206057500Y-130452500D03*
D31*
X115695000Y-90238000D03*
X115695000Y-91038000D03*
X115695000Y-91838000D03*
X115695000Y-92638000D03*
X114175000Y-92638000D03*
X114175000Y-91838000D03*
X114175000Y-91038000D03*
X114175000Y-90238000D03*
D27*
X183665500Y-91948000D03*
X181840500Y-91948000D03*
D28*
X113284000Y-99798500D03*
X113284000Y-101623500D03*
D27*
X87606500Y-101600000D03*
X89431500Y-101600000D03*
D31*
X164213000Y-138360000D03*
X164213000Y-137560000D03*
X164213000Y-136760000D03*
X164213000Y-135960000D03*
X165733000Y-135960000D03*
X165733000Y-136760000D03*
X165733000Y-137560000D03*
X165733000Y-138360000D03*
D28*
X201612500Y-60602500D03*
X201612500Y-58777500D03*
D27*
X147587500Y-63000000D03*
X149412500Y-63000000D03*
X91797500Y-88900000D03*
X93622500Y-88900000D03*
D28*
X125095000Y-119737500D03*
X125095000Y-121562500D03*
D32*
X139643000Y-119001000D03*
X140443000Y-119001000D03*
X141243000Y-119001000D03*
X142043000Y-119001000D03*
X142043000Y-120521000D03*
X141243000Y-120521000D03*
X140443000Y-120521000D03*
X139643000Y-120521000D03*
D28*
X114935000Y-115292500D03*
X114935000Y-117117500D03*
D32*
X158947000Y-118874000D03*
X159747000Y-118874000D03*
X160547000Y-118874000D03*
X161347000Y-118874000D03*
X161347000Y-120394000D03*
X160547000Y-120394000D03*
X159747000Y-120394000D03*
X158947000Y-120394000D03*
D28*
X121920000Y-57507500D03*
X121920000Y-59332500D03*
X155600000Y-134087500D03*
X155600000Y-135912500D03*
X165227000Y-115038500D03*
X165227000Y-116863500D03*
D27*
X144930500Y-114046000D03*
X143105500Y-114046000D03*
D28*
X206057500Y-95527500D03*
X206057500Y-93702500D03*
X201612500Y-121562500D03*
X201612500Y-119737500D03*
D27*
X71270500Y-61595000D03*
X69445500Y-61595000D03*
X203303500Y-80010000D03*
X205128500Y-80010000D03*
D28*
X188468000Y-91035500D03*
X188468000Y-92860500D03*
D27*
X82653500Y-116840000D03*
X84478500Y-116840000D03*
D28*
X177400000Y-134087500D03*
X177400000Y-135912500D03*
X201612500Y-128627500D03*
X201612500Y-130452500D03*
X186182000Y-78589500D03*
X186182000Y-80414500D03*
X206057500Y-60602500D03*
X206057500Y-58777500D03*
D27*
X154587500Y-63000000D03*
X156412500Y-63000000D03*
D28*
X208026000Y-83462500D03*
X208026000Y-81637500D03*
X110490000Y-70842500D03*
X110490000Y-72667500D03*
D27*
X105767500Y-133350000D03*
X107592500Y-133350000D03*
D28*
X75311000Y-83462500D03*
X75311000Y-81637500D03*
D27*
X197254500Y-136779000D03*
X195429500Y-136779000D03*
X183665500Y-90043000D03*
X181840500Y-90043000D03*
X199159500Y-73025000D03*
X197334500Y-73025000D03*
D28*
X120650000Y-115292500D03*
X120650000Y-117117500D03*
D27*
X183665500Y-87757000D03*
X181840500Y-87757000D03*
X164587500Y-63000000D03*
X166412500Y-63000000D03*
D28*
X73406000Y-83462500D03*
X73406000Y-81637500D03*
D33*
X181821000Y-83058000D03*
D28*
X186563000Y-91035500D03*
X186563000Y-92860500D03*
D31*
X135253000Y-109290000D03*
X135253000Y-110090000D03*
X135253000Y-110890000D03*
X135253000Y-111690000D03*
X133733000Y-111690000D03*
X133733000Y-110890000D03*
X133733000Y-110090000D03*
X133733000Y-109290000D03*
D28*
X206057500Y-102592500D03*
X206057500Y-104417500D03*
D32*
X145104000Y-119001000D03*
X145904000Y-119001000D03*
X146704000Y-119001000D03*
X147504000Y-119001000D03*
X147504000Y-120521000D03*
X146704000Y-120521000D03*
X145904000Y-120521000D03*
X145104000Y-120521000D03*
D28*
X155600000Y-141112500D03*
X155600000Y-139287500D03*
D33*
X188595000Y-88900000D03*
D27*
X199112500Y-143129000D03*
X200937500Y-143129000D03*
D28*
X208026000Y-88542500D03*
X208026000Y-86717500D03*
X201612500Y-102592500D03*
X201612500Y-104417500D03*
X152695000Y-55729500D03*
X152695000Y-57554500D03*
D27*
X199112500Y-135509000D03*
X200937500Y-135509000D03*
D28*
X118745000Y-115292500D03*
X118745000Y-117117500D03*
D27*
X183665500Y-85852000D03*
X181840500Y-85852000D03*
X203280000Y-85344000D03*
X205105000Y-85344000D03*
D28*
X206057500Y-67667500D03*
X206057500Y-69492500D03*
X164846000Y-120927500D03*
X164846000Y-119102500D03*
D33*
X141224000Y-84250000D03*
D27*
X204065500Y-107950000D03*
X205890500Y-107950000D03*
D28*
X181821000Y-80922500D03*
X181821000Y-79097500D03*
D27*
X197254500Y-142240000D03*
X195429500Y-142240000D03*
D28*
X123190000Y-127992500D03*
X123190000Y-129817500D03*
X125095000Y-111482500D03*
X125095000Y-113307500D03*
D33*
X154250000Y-67750000D03*
D28*
X201612500Y-95527500D03*
X201612500Y-93702500D03*
D31*
X135253000Y-117545000D03*
X135253000Y-118345000D03*
X135253000Y-119145000D03*
X135253000Y-119945000D03*
X133733000Y-119945000D03*
X133733000Y-119145000D03*
X133733000Y-118345000D03*
X133733000Y-117545000D03*
D28*
X201612500Y-67667500D03*
X201612500Y-69492500D03*
G36*
X126996573Y-145228027D02*
G01*
X127000000Y-145236300D01*
X127000000Y-145250000D01*
X223728300Y-145250000D01*
X223736573Y-145253427D01*
X223740000Y-145261700D01*
X223740000Y-147778300D01*
X223736573Y-147786573D01*
X223728300Y-147790000D01*
X63991700Y-147790000D01*
X63983427Y-147786573D01*
X63980000Y-147778300D01*
X63980000Y-145261700D01*
X63983427Y-145253427D01*
X63991700Y-145250000D01*
X114300000Y-145250000D01*
X114300000Y-145236300D01*
X114303427Y-145228027D01*
X114311700Y-145224600D01*
X126988300Y-145224600D01*
X126996573Y-145228027D01*
G37*
G36*
X126943039Y-142259685D02*
G01*
X126988794Y-142312489D01*
X127000000Y-142364000D01*
X127000000Y-145250000D01*
X127088299Y-145250000D01*
X127155338Y-145269685D01*
X127201093Y-145322489D01*
X127211037Y-145391647D01*
X127191393Y-145442904D01*
X127190472Y-145444282D01*
X127156268Y-145478481D01*
X127116179Y-145505267D01*
X127071482Y-145523781D01*
X127011982Y-145535617D01*
X126987789Y-145538000D01*
X114312211Y-145538000D01*
X114288019Y-145535617D01*
X114228518Y-145523781D01*
X114183820Y-145505267D01*
X114143731Y-145478481D01*
X114109493Y-145444230D01*
X114108573Y-145442852D01*
X114087720Y-145376167D01*
X114106230Y-145308793D01*
X114158227Y-145262123D01*
X114211701Y-145250000D01*
X114300000Y-145250000D01*
X114300000Y-142364000D01*
X114319685Y-142296961D01*
X114372489Y-142251206D01*
X114424000Y-142240000D01*
X126876000Y-142240000D01*
X126943039Y-142259685D01*
G37*
G36*
X223736573Y-47793427D02*
G01*
X223740000Y-47801700D01*
X223740000Y-50318300D01*
X223736573Y-50326573D01*
X223728300Y-50330000D01*
X63991700Y-50330000D01*
X63983427Y-50326573D01*
X63980000Y-50318300D01*
X63980000Y-47801700D01*
X63983427Y-47793427D01*
X63991700Y-47790000D01*
X223728300Y-47790000D01*
X223736573Y-47793427D01*
G37*
M02*
