%TF.GenerationSoftware,KiCad,Pcbnew,9.0.3*%
%TF.CreationDate,2025-08-05T07:58:32+01:00*%
%TF.ProjectId,Video_Card,56696465-6f5f-4436-9172-642e6b696361,1*%
%TF.SameCoordinates,Original*%
%TF.FileFunction,Drillmap*%
%TF.FilePolarity,Positive*%
%FSLAX45Y45*%
G04 Gerber Fmt 4.5, Leading zero omitted, Abs format (unit mm)*
G04 Created by KiCad (PCBNEW 9.0.3) date 2025-08-05 07:58:32*
%MOMM*%
%LPD*%
G01*
G04 APERTURE LIST*
%ADD10C,0.100000*%
%ADD11C,0.200000*%
%ADD12C,0.285000*%
%ADD13C,0.320000*%
G04 APERTURE END LIST*
D10*
X6398000Y-4779000D02*
X6398000Y-14779000D01*
X22374000Y-4779000D02*
X22374000Y-14779000D01*
X6398000Y-14779000D02*
X22374000Y-14779000D01*
X22374000Y-4779000D02*
X6398000Y-4779000D01*
D11*
D12*
X21955500Y-5191500D02*
X22240500Y-5476500D01*
X22240500Y-5191500D02*
X21955500Y-5476500D01*
X21955500Y-14081500D02*
X22240500Y-14366500D01*
X22240500Y-14081500D02*
X21955500Y-14366500D01*
D13*
X6858000Y-5351000D02*
G75*
G02*
X6538000Y-5351000I-160000J0D01*
G01*
X6538000Y-5351000D02*
G75*
G02*
X6858000Y-5351000I160000J0D01*
G01*
X6858000Y-14207000D02*
G75*
G02*
X6538000Y-14207000I-160000J0D01*
G01*
X6538000Y-14207000D02*
G75*
G02*
X6858000Y-14207000I160000J0D01*
G01*
D11*
X6653777Y-15095484D02*
X6653777Y-14895484D01*
X6653777Y-14895484D02*
X6701396Y-14895484D01*
X6701396Y-14895484D02*
X6729967Y-14905008D01*
X6729967Y-14905008D02*
X6749015Y-14924055D01*
X6749015Y-14924055D02*
X6758539Y-14943103D01*
X6758539Y-14943103D02*
X6768062Y-14981198D01*
X6768062Y-14981198D02*
X6768062Y-15009769D01*
X6768062Y-15009769D02*
X6758539Y-15047865D01*
X6758539Y-15047865D02*
X6749015Y-15066912D01*
X6749015Y-15066912D02*
X6729967Y-15085960D01*
X6729967Y-15085960D02*
X6701396Y-15095484D01*
X6701396Y-15095484D02*
X6653777Y-15095484D01*
X6853777Y-15095484D02*
X6853777Y-14962150D01*
X6853777Y-15000246D02*
X6863301Y-14981198D01*
X6863301Y-14981198D02*
X6872824Y-14971674D01*
X6872824Y-14971674D02*
X6891872Y-14962150D01*
X6891872Y-14962150D02*
X6910920Y-14962150D01*
X6977586Y-15095484D02*
X6977586Y-14962150D01*
X6977586Y-14895484D02*
X6968062Y-14905008D01*
X6968062Y-14905008D02*
X6977586Y-14914531D01*
X6977586Y-14914531D02*
X6987110Y-14905008D01*
X6987110Y-14905008D02*
X6977586Y-14895484D01*
X6977586Y-14895484D02*
X6977586Y-14914531D01*
X7101396Y-15095484D02*
X7082348Y-15085960D01*
X7082348Y-15085960D02*
X7072824Y-15066912D01*
X7072824Y-15066912D02*
X7072824Y-14895484D01*
X7206158Y-15095484D02*
X7187110Y-15085960D01*
X7187110Y-15085960D02*
X7177586Y-15066912D01*
X7177586Y-15066912D02*
X7177586Y-14895484D01*
X7434729Y-15095484D02*
X7434729Y-14895484D01*
X7434729Y-14895484D02*
X7501396Y-15038341D01*
X7501396Y-15038341D02*
X7568062Y-14895484D01*
X7568062Y-14895484D02*
X7568062Y-15095484D01*
X7749015Y-15095484D02*
X7749015Y-14990722D01*
X7749015Y-14990722D02*
X7739491Y-14971674D01*
X7739491Y-14971674D02*
X7720443Y-14962150D01*
X7720443Y-14962150D02*
X7682348Y-14962150D01*
X7682348Y-14962150D02*
X7663301Y-14971674D01*
X7749015Y-15085960D02*
X7729967Y-15095484D01*
X7729967Y-15095484D02*
X7682348Y-15095484D01*
X7682348Y-15095484D02*
X7663301Y-15085960D01*
X7663301Y-15085960D02*
X7653777Y-15066912D01*
X7653777Y-15066912D02*
X7653777Y-15047865D01*
X7653777Y-15047865D02*
X7663301Y-15028817D01*
X7663301Y-15028817D02*
X7682348Y-15019293D01*
X7682348Y-15019293D02*
X7729967Y-15019293D01*
X7729967Y-15019293D02*
X7749015Y-15009769D01*
X7844253Y-14962150D02*
X7844253Y-15162150D01*
X7844253Y-14971674D02*
X7863301Y-14962150D01*
X7863301Y-14962150D02*
X7901396Y-14962150D01*
X7901396Y-14962150D02*
X7920443Y-14971674D01*
X7920443Y-14971674D02*
X7929967Y-14981198D01*
X7929967Y-14981198D02*
X7939491Y-15000246D01*
X7939491Y-15000246D02*
X7939491Y-15057388D01*
X7939491Y-15057388D02*
X7929967Y-15076436D01*
X7929967Y-15076436D02*
X7920443Y-15085960D01*
X7920443Y-15085960D02*
X7901396Y-15095484D01*
X7901396Y-15095484D02*
X7863301Y-15095484D01*
X7863301Y-15095484D02*
X7844253Y-15085960D01*
X8025205Y-15076436D02*
X8034729Y-15085960D01*
X8034729Y-15085960D02*
X8025205Y-15095484D01*
X8025205Y-15095484D02*
X8015682Y-15085960D01*
X8015682Y-15085960D02*
X8025205Y-15076436D01*
X8025205Y-15076436D02*
X8025205Y-15095484D01*
X8025205Y-14971674D02*
X8034729Y-14981198D01*
X8034729Y-14981198D02*
X8025205Y-14990722D01*
X8025205Y-14990722D02*
X8015682Y-14981198D01*
X8015682Y-14981198D02*
X8025205Y-14971674D01*
X8025205Y-14971674D02*
X8025205Y-14990722D01*
X6193000Y-15324000D02*
X6393000Y-15524000D01*
X6393000Y-15324000D02*
X6193000Y-15524000D01*
X6644253Y-15334531D02*
X6653777Y-15325008D01*
X6653777Y-15325008D02*
X6672824Y-15315484D01*
X6672824Y-15315484D02*
X6720443Y-15315484D01*
X6720443Y-15315484D02*
X6739491Y-15325008D01*
X6739491Y-15325008D02*
X6749015Y-15334531D01*
X6749015Y-15334531D02*
X6758539Y-15353579D01*
X6758539Y-15353579D02*
X6758539Y-15372627D01*
X6758539Y-15372627D02*
X6749015Y-15401198D01*
X6749015Y-15401198D02*
X6634729Y-15515484D01*
X6634729Y-15515484D02*
X6758539Y-15515484D01*
X6844253Y-15496436D02*
X6853777Y-15505960D01*
X6853777Y-15505960D02*
X6844253Y-15515484D01*
X6844253Y-15515484D02*
X6834729Y-15505960D01*
X6834729Y-15505960D02*
X6844253Y-15496436D01*
X6844253Y-15496436D02*
X6844253Y-15515484D01*
X6968062Y-15401198D02*
X6949015Y-15391674D01*
X6949015Y-15391674D02*
X6939491Y-15382150D01*
X6939491Y-15382150D02*
X6929967Y-15363103D01*
X6929967Y-15363103D02*
X6929967Y-15353579D01*
X6929967Y-15353579D02*
X6939491Y-15334531D01*
X6939491Y-15334531D02*
X6949015Y-15325008D01*
X6949015Y-15325008D02*
X6968062Y-15315484D01*
X6968062Y-15315484D02*
X7006158Y-15315484D01*
X7006158Y-15315484D02*
X7025205Y-15325008D01*
X7025205Y-15325008D02*
X7034729Y-15334531D01*
X7034729Y-15334531D02*
X7044253Y-15353579D01*
X7044253Y-15353579D02*
X7044253Y-15363103D01*
X7044253Y-15363103D02*
X7034729Y-15382150D01*
X7034729Y-15382150D02*
X7025205Y-15391674D01*
X7025205Y-15391674D02*
X7006158Y-15401198D01*
X7006158Y-15401198D02*
X6968062Y-15401198D01*
X6968062Y-15401198D02*
X6949015Y-15410722D01*
X6949015Y-15410722D02*
X6939491Y-15420246D01*
X6939491Y-15420246D02*
X6929967Y-15439293D01*
X6929967Y-15439293D02*
X6929967Y-15477388D01*
X6929967Y-15477388D02*
X6939491Y-15496436D01*
X6939491Y-15496436D02*
X6949015Y-15505960D01*
X6949015Y-15505960D02*
X6968062Y-15515484D01*
X6968062Y-15515484D02*
X7006158Y-15515484D01*
X7006158Y-15515484D02*
X7025205Y-15505960D01*
X7025205Y-15505960D02*
X7034729Y-15496436D01*
X7034729Y-15496436D02*
X7044253Y-15477388D01*
X7044253Y-15477388D02*
X7044253Y-15439293D01*
X7044253Y-15439293D02*
X7034729Y-15420246D01*
X7034729Y-15420246D02*
X7025205Y-15410722D01*
X7025205Y-15410722D02*
X7006158Y-15401198D01*
X7225205Y-15315484D02*
X7129967Y-15315484D01*
X7129967Y-15315484D02*
X7120443Y-15410722D01*
X7120443Y-15410722D02*
X7129967Y-15401198D01*
X7129967Y-15401198D02*
X7149015Y-15391674D01*
X7149015Y-15391674D02*
X7196634Y-15391674D01*
X7196634Y-15391674D02*
X7215682Y-15401198D01*
X7215682Y-15401198D02*
X7225205Y-15410722D01*
X7225205Y-15410722D02*
X7234729Y-15429769D01*
X7234729Y-15429769D02*
X7234729Y-15477388D01*
X7234729Y-15477388D02*
X7225205Y-15496436D01*
X7225205Y-15496436D02*
X7215682Y-15505960D01*
X7215682Y-15505960D02*
X7196634Y-15515484D01*
X7196634Y-15515484D02*
X7149015Y-15515484D01*
X7149015Y-15515484D02*
X7129967Y-15505960D01*
X7129967Y-15505960D02*
X7120443Y-15496436D01*
X7358539Y-15315484D02*
X7377586Y-15315484D01*
X7377586Y-15315484D02*
X7396634Y-15325008D01*
X7396634Y-15325008D02*
X7406158Y-15334531D01*
X7406158Y-15334531D02*
X7415682Y-15353579D01*
X7415682Y-15353579D02*
X7425205Y-15391674D01*
X7425205Y-15391674D02*
X7425205Y-15439293D01*
X7425205Y-15439293D02*
X7415682Y-15477388D01*
X7415682Y-15477388D02*
X7406158Y-15496436D01*
X7406158Y-15496436D02*
X7396634Y-15505960D01*
X7396634Y-15505960D02*
X7377586Y-15515484D01*
X7377586Y-15515484D02*
X7358539Y-15515484D01*
X7358539Y-15515484D02*
X7339491Y-15505960D01*
X7339491Y-15505960D02*
X7329967Y-15496436D01*
X7329967Y-15496436D02*
X7320443Y-15477388D01*
X7320443Y-15477388D02*
X7310920Y-15439293D01*
X7310920Y-15439293D02*
X7310920Y-15391674D01*
X7310920Y-15391674D02*
X7320443Y-15353579D01*
X7320443Y-15353579D02*
X7329967Y-15334531D01*
X7329967Y-15334531D02*
X7339491Y-15325008D01*
X7339491Y-15325008D02*
X7358539Y-15315484D01*
X7510920Y-15515484D02*
X7510920Y-15382150D01*
X7510920Y-15401198D02*
X7520443Y-15391674D01*
X7520443Y-15391674D02*
X7539491Y-15382150D01*
X7539491Y-15382150D02*
X7568063Y-15382150D01*
X7568063Y-15382150D02*
X7587110Y-15391674D01*
X7587110Y-15391674D02*
X7596634Y-15410722D01*
X7596634Y-15410722D02*
X7596634Y-15515484D01*
X7596634Y-15410722D02*
X7606158Y-15391674D01*
X7606158Y-15391674D02*
X7625205Y-15382150D01*
X7625205Y-15382150D02*
X7653777Y-15382150D01*
X7653777Y-15382150D02*
X7672824Y-15391674D01*
X7672824Y-15391674D02*
X7682348Y-15410722D01*
X7682348Y-15410722D02*
X7682348Y-15515484D01*
X7777586Y-15515484D02*
X7777586Y-15382150D01*
X7777586Y-15401198D02*
X7787110Y-15391674D01*
X7787110Y-15391674D02*
X7806158Y-15382150D01*
X7806158Y-15382150D02*
X7834729Y-15382150D01*
X7834729Y-15382150D02*
X7853777Y-15391674D01*
X7853777Y-15391674D02*
X7863301Y-15410722D01*
X7863301Y-15410722D02*
X7863301Y-15515484D01*
X7863301Y-15410722D02*
X7872824Y-15391674D01*
X7872824Y-15391674D02*
X7891872Y-15382150D01*
X7891872Y-15382150D02*
X7920443Y-15382150D01*
X7920443Y-15382150D02*
X7939491Y-15391674D01*
X7939491Y-15391674D02*
X7949015Y-15410722D01*
X7949015Y-15410722D02*
X7949015Y-15515484D01*
X8339491Y-15305960D02*
X8168063Y-15563103D01*
X8596634Y-15315484D02*
X8615682Y-15315484D01*
X8615682Y-15315484D02*
X8634729Y-15325008D01*
X8634729Y-15325008D02*
X8644253Y-15334531D01*
X8644253Y-15334531D02*
X8653777Y-15353579D01*
X8653777Y-15353579D02*
X8663301Y-15391674D01*
X8663301Y-15391674D02*
X8663301Y-15439293D01*
X8663301Y-15439293D02*
X8653777Y-15477388D01*
X8653777Y-15477388D02*
X8644253Y-15496436D01*
X8644253Y-15496436D02*
X8634729Y-15505960D01*
X8634729Y-15505960D02*
X8615682Y-15515484D01*
X8615682Y-15515484D02*
X8596634Y-15515484D01*
X8596634Y-15515484D02*
X8577587Y-15505960D01*
X8577587Y-15505960D02*
X8568063Y-15496436D01*
X8568063Y-15496436D02*
X8558539Y-15477388D01*
X8558539Y-15477388D02*
X8549015Y-15439293D01*
X8549015Y-15439293D02*
X8549015Y-15391674D01*
X8549015Y-15391674D02*
X8558539Y-15353579D01*
X8558539Y-15353579D02*
X8568063Y-15334531D01*
X8568063Y-15334531D02*
X8577587Y-15325008D01*
X8577587Y-15325008D02*
X8596634Y-15315484D01*
X8749015Y-15496436D02*
X8758539Y-15505960D01*
X8758539Y-15505960D02*
X8749015Y-15515484D01*
X8749015Y-15515484D02*
X8739491Y-15505960D01*
X8739491Y-15505960D02*
X8749015Y-15496436D01*
X8749015Y-15496436D02*
X8749015Y-15515484D01*
X8949015Y-15515484D02*
X8834729Y-15515484D01*
X8891872Y-15515484D02*
X8891872Y-15315484D01*
X8891872Y-15315484D02*
X8872825Y-15344055D01*
X8872825Y-15344055D02*
X8853777Y-15363103D01*
X8853777Y-15363103D02*
X8834729Y-15372627D01*
X9139491Y-15515484D02*
X9025206Y-15515484D01*
X9082348Y-15515484D02*
X9082348Y-15315484D01*
X9082348Y-15315484D02*
X9063301Y-15344055D01*
X9063301Y-15344055D02*
X9044253Y-15363103D01*
X9044253Y-15363103D02*
X9025206Y-15372627D01*
X9215682Y-15334531D02*
X9225206Y-15325008D01*
X9225206Y-15325008D02*
X9244253Y-15315484D01*
X9244253Y-15315484D02*
X9291872Y-15315484D01*
X9291872Y-15315484D02*
X9310920Y-15325008D01*
X9310920Y-15325008D02*
X9320444Y-15334531D01*
X9320444Y-15334531D02*
X9329968Y-15353579D01*
X9329968Y-15353579D02*
X9329968Y-15372627D01*
X9329968Y-15372627D02*
X9320444Y-15401198D01*
X9320444Y-15401198D02*
X9206158Y-15515484D01*
X9206158Y-15515484D02*
X9329968Y-15515484D01*
X9406158Y-15334531D02*
X9415682Y-15325008D01*
X9415682Y-15325008D02*
X9434729Y-15315484D01*
X9434729Y-15315484D02*
X9482349Y-15315484D01*
X9482349Y-15315484D02*
X9501396Y-15325008D01*
X9501396Y-15325008D02*
X9510920Y-15334531D01*
X9510920Y-15334531D02*
X9520444Y-15353579D01*
X9520444Y-15353579D02*
X9520444Y-15372627D01*
X9520444Y-15372627D02*
X9510920Y-15401198D01*
X9510920Y-15401198D02*
X9396634Y-15515484D01*
X9396634Y-15515484D02*
X9520444Y-15515484D01*
X9596634Y-15315484D02*
X9596634Y-15353579D01*
X9672825Y-15315484D02*
X9672825Y-15353579D01*
X9968063Y-15591674D02*
X9958539Y-15582150D01*
X9958539Y-15582150D02*
X9939491Y-15553579D01*
X9939491Y-15553579D02*
X9929968Y-15534531D01*
X9929968Y-15534531D02*
X9920444Y-15505960D01*
X9920444Y-15505960D02*
X9910920Y-15458341D01*
X9910920Y-15458341D02*
X9910920Y-15420246D01*
X9910920Y-15420246D02*
X9920444Y-15372627D01*
X9920444Y-15372627D02*
X9929968Y-15344055D01*
X9929968Y-15344055D02*
X9939491Y-15325008D01*
X9939491Y-15325008D02*
X9958539Y-15296436D01*
X9958539Y-15296436D02*
X9968063Y-15286912D01*
X10034730Y-15334531D02*
X10044253Y-15325008D01*
X10044253Y-15325008D02*
X10063301Y-15315484D01*
X10063301Y-15315484D02*
X10110920Y-15315484D01*
X10110920Y-15315484D02*
X10129968Y-15325008D01*
X10129968Y-15325008D02*
X10139491Y-15334531D01*
X10139491Y-15334531D02*
X10149015Y-15353579D01*
X10149015Y-15353579D02*
X10149015Y-15372627D01*
X10149015Y-15372627D02*
X10139491Y-15401198D01*
X10139491Y-15401198D02*
X10025206Y-15515484D01*
X10025206Y-15515484D02*
X10149015Y-15515484D01*
X10387111Y-15515484D02*
X10387111Y-15315484D01*
X10472825Y-15515484D02*
X10472825Y-15410722D01*
X10472825Y-15410722D02*
X10463301Y-15391674D01*
X10463301Y-15391674D02*
X10444253Y-15382150D01*
X10444253Y-15382150D02*
X10415682Y-15382150D01*
X10415682Y-15382150D02*
X10396634Y-15391674D01*
X10396634Y-15391674D02*
X10387111Y-15401198D01*
X10596634Y-15515484D02*
X10577587Y-15505960D01*
X10577587Y-15505960D02*
X10568063Y-15496436D01*
X10568063Y-15496436D02*
X10558539Y-15477388D01*
X10558539Y-15477388D02*
X10558539Y-15420246D01*
X10558539Y-15420246D02*
X10568063Y-15401198D01*
X10568063Y-15401198D02*
X10577587Y-15391674D01*
X10577587Y-15391674D02*
X10596634Y-15382150D01*
X10596634Y-15382150D02*
X10625206Y-15382150D01*
X10625206Y-15382150D02*
X10644253Y-15391674D01*
X10644253Y-15391674D02*
X10653777Y-15401198D01*
X10653777Y-15401198D02*
X10663301Y-15420246D01*
X10663301Y-15420246D02*
X10663301Y-15477388D01*
X10663301Y-15477388D02*
X10653777Y-15496436D01*
X10653777Y-15496436D02*
X10644253Y-15505960D01*
X10644253Y-15505960D02*
X10625206Y-15515484D01*
X10625206Y-15515484D02*
X10596634Y-15515484D01*
X10777587Y-15515484D02*
X10758539Y-15505960D01*
X10758539Y-15505960D02*
X10749015Y-15486912D01*
X10749015Y-15486912D02*
X10749015Y-15315484D01*
X10929968Y-15505960D02*
X10910920Y-15515484D01*
X10910920Y-15515484D02*
X10872825Y-15515484D01*
X10872825Y-15515484D02*
X10853777Y-15505960D01*
X10853777Y-15505960D02*
X10844253Y-15486912D01*
X10844253Y-15486912D02*
X10844253Y-15410722D01*
X10844253Y-15410722D02*
X10853777Y-15391674D01*
X10853777Y-15391674D02*
X10872825Y-15382150D01*
X10872825Y-15382150D02*
X10910920Y-15382150D01*
X10910920Y-15382150D02*
X10929968Y-15391674D01*
X10929968Y-15391674D02*
X10939492Y-15410722D01*
X10939492Y-15410722D02*
X10939492Y-15429769D01*
X10939492Y-15429769D02*
X10844253Y-15448817D01*
X11015682Y-15505960D02*
X11034730Y-15515484D01*
X11034730Y-15515484D02*
X11072825Y-15515484D01*
X11072825Y-15515484D02*
X11091873Y-15505960D01*
X11091873Y-15505960D02*
X11101396Y-15486912D01*
X11101396Y-15486912D02*
X11101396Y-15477388D01*
X11101396Y-15477388D02*
X11091873Y-15458341D01*
X11091873Y-15458341D02*
X11072825Y-15448817D01*
X11072825Y-15448817D02*
X11044253Y-15448817D01*
X11044253Y-15448817D02*
X11025206Y-15439293D01*
X11025206Y-15439293D02*
X11015682Y-15420246D01*
X11015682Y-15420246D02*
X11015682Y-15410722D01*
X11015682Y-15410722D02*
X11025206Y-15391674D01*
X11025206Y-15391674D02*
X11044253Y-15382150D01*
X11044253Y-15382150D02*
X11072825Y-15382150D01*
X11072825Y-15382150D02*
X11091873Y-15391674D01*
X11168063Y-15591674D02*
X11177587Y-15582150D01*
X11177587Y-15582150D02*
X11196634Y-15553579D01*
X11196634Y-15553579D02*
X11206158Y-15534531D01*
X11206158Y-15534531D02*
X11215682Y-15505960D01*
X11215682Y-15505960D02*
X11225206Y-15458341D01*
X11225206Y-15458341D02*
X11225206Y-15420246D01*
X11225206Y-15420246D02*
X11215682Y-15372627D01*
X11215682Y-15372627D02*
X11206158Y-15344055D01*
X11206158Y-15344055D02*
X11196634Y-15325008D01*
X11196634Y-15325008D02*
X11177587Y-15296436D01*
X11177587Y-15296436D02*
X11168063Y-15286912D01*
X11529968Y-15591674D02*
X11520444Y-15582150D01*
X11520444Y-15582150D02*
X11501396Y-15553579D01*
X11501396Y-15553579D02*
X11491872Y-15534531D01*
X11491872Y-15534531D02*
X11482349Y-15505960D01*
X11482349Y-15505960D02*
X11472825Y-15458341D01*
X11472825Y-15458341D02*
X11472825Y-15420246D01*
X11472825Y-15420246D02*
X11482349Y-15372627D01*
X11482349Y-15372627D02*
X11491872Y-15344055D01*
X11491872Y-15344055D02*
X11501396Y-15325008D01*
X11501396Y-15325008D02*
X11520444Y-15296436D01*
X11520444Y-15296436D02*
X11529968Y-15286912D01*
X11606158Y-15382150D02*
X11606158Y-15515484D01*
X11606158Y-15401198D02*
X11615682Y-15391674D01*
X11615682Y-15391674D02*
X11634730Y-15382150D01*
X11634730Y-15382150D02*
X11663301Y-15382150D01*
X11663301Y-15382150D02*
X11682349Y-15391674D01*
X11682349Y-15391674D02*
X11691872Y-15410722D01*
X11691872Y-15410722D02*
X11691872Y-15515484D01*
X11815682Y-15515484D02*
X11796634Y-15505960D01*
X11796634Y-15505960D02*
X11787111Y-15496436D01*
X11787111Y-15496436D02*
X11777587Y-15477388D01*
X11777587Y-15477388D02*
X11777587Y-15420246D01*
X11777587Y-15420246D02*
X11787111Y-15401198D01*
X11787111Y-15401198D02*
X11796634Y-15391674D01*
X11796634Y-15391674D02*
X11815682Y-15382150D01*
X11815682Y-15382150D02*
X11844253Y-15382150D01*
X11844253Y-15382150D02*
X11863301Y-15391674D01*
X11863301Y-15391674D02*
X11872825Y-15401198D01*
X11872825Y-15401198D02*
X11882349Y-15420246D01*
X11882349Y-15420246D02*
X11882349Y-15477388D01*
X11882349Y-15477388D02*
X11872825Y-15496436D01*
X11872825Y-15496436D02*
X11863301Y-15505960D01*
X11863301Y-15505960D02*
X11844253Y-15515484D01*
X11844253Y-15515484D02*
X11815682Y-15515484D01*
X11939492Y-15382150D02*
X12015682Y-15382150D01*
X11968063Y-15315484D02*
X11968063Y-15486912D01*
X11968063Y-15486912D02*
X11977587Y-15505960D01*
X11977587Y-15505960D02*
X11996634Y-15515484D01*
X11996634Y-15515484D02*
X12015682Y-15515484D01*
X12234730Y-15382150D02*
X12234730Y-15582150D01*
X12234730Y-15391674D02*
X12253777Y-15382150D01*
X12253777Y-15382150D02*
X12291873Y-15382150D01*
X12291873Y-15382150D02*
X12310920Y-15391674D01*
X12310920Y-15391674D02*
X12320444Y-15401198D01*
X12320444Y-15401198D02*
X12329968Y-15420246D01*
X12329968Y-15420246D02*
X12329968Y-15477388D01*
X12329968Y-15477388D02*
X12320444Y-15496436D01*
X12320444Y-15496436D02*
X12310920Y-15505960D01*
X12310920Y-15505960D02*
X12291873Y-15515484D01*
X12291873Y-15515484D02*
X12253777Y-15515484D01*
X12253777Y-15515484D02*
X12234730Y-15505960D01*
X12444253Y-15515484D02*
X12425206Y-15505960D01*
X12425206Y-15505960D02*
X12415682Y-15486912D01*
X12415682Y-15486912D02*
X12415682Y-15315484D01*
X12606158Y-15515484D02*
X12606158Y-15410722D01*
X12606158Y-15410722D02*
X12596634Y-15391674D01*
X12596634Y-15391674D02*
X12577587Y-15382150D01*
X12577587Y-15382150D02*
X12539492Y-15382150D01*
X12539492Y-15382150D02*
X12520444Y-15391674D01*
X12606158Y-15505960D02*
X12587111Y-15515484D01*
X12587111Y-15515484D02*
X12539492Y-15515484D01*
X12539492Y-15515484D02*
X12520444Y-15505960D01*
X12520444Y-15505960D02*
X12510920Y-15486912D01*
X12510920Y-15486912D02*
X12510920Y-15467865D01*
X12510920Y-15467865D02*
X12520444Y-15448817D01*
X12520444Y-15448817D02*
X12539492Y-15439293D01*
X12539492Y-15439293D02*
X12587111Y-15439293D01*
X12587111Y-15439293D02*
X12606158Y-15429769D01*
X12672825Y-15382150D02*
X12749015Y-15382150D01*
X12701396Y-15315484D02*
X12701396Y-15486912D01*
X12701396Y-15486912D02*
X12710920Y-15505960D01*
X12710920Y-15505960D02*
X12729968Y-15515484D01*
X12729968Y-15515484D02*
X12749015Y-15515484D01*
X12891873Y-15505960D02*
X12872825Y-15515484D01*
X12872825Y-15515484D02*
X12834730Y-15515484D01*
X12834730Y-15515484D02*
X12815682Y-15505960D01*
X12815682Y-15505960D02*
X12806158Y-15486912D01*
X12806158Y-15486912D02*
X12806158Y-15410722D01*
X12806158Y-15410722D02*
X12815682Y-15391674D01*
X12815682Y-15391674D02*
X12834730Y-15382150D01*
X12834730Y-15382150D02*
X12872825Y-15382150D01*
X12872825Y-15382150D02*
X12891873Y-15391674D01*
X12891873Y-15391674D02*
X12901396Y-15410722D01*
X12901396Y-15410722D02*
X12901396Y-15429769D01*
X12901396Y-15429769D02*
X12806158Y-15448817D01*
X13072825Y-15515484D02*
X13072825Y-15315484D01*
X13072825Y-15505960D02*
X13053777Y-15515484D01*
X13053777Y-15515484D02*
X13015682Y-15515484D01*
X13015682Y-15515484D02*
X12996634Y-15505960D01*
X12996634Y-15505960D02*
X12987111Y-15496436D01*
X12987111Y-15496436D02*
X12977587Y-15477388D01*
X12977587Y-15477388D02*
X12977587Y-15420246D01*
X12977587Y-15420246D02*
X12987111Y-15401198D01*
X12987111Y-15401198D02*
X12996634Y-15391674D01*
X12996634Y-15391674D02*
X13015682Y-15382150D01*
X13015682Y-15382150D02*
X13053777Y-15382150D01*
X13053777Y-15382150D02*
X13072825Y-15391674D01*
X13149015Y-15591674D02*
X13158539Y-15582150D01*
X13158539Y-15582150D02*
X13177587Y-15553579D01*
X13177587Y-15553579D02*
X13187111Y-15534531D01*
X13187111Y-15534531D02*
X13196634Y-15505960D01*
X13196634Y-15505960D02*
X13206158Y-15458341D01*
X13206158Y-15458341D02*
X13206158Y-15420246D01*
X13206158Y-15420246D02*
X13196634Y-15372627D01*
X13196634Y-15372627D02*
X13187111Y-15344055D01*
X13187111Y-15344055D02*
X13177587Y-15325008D01*
X13177587Y-15325008D02*
X13158539Y-15296436D01*
X13158539Y-15296436D02*
X13149015Y-15286912D01*
X6393000Y-15744000D02*
G75*
G02*
X6193000Y-15744000I-100000J0D01*
G01*
X6193000Y-15744000D02*
G75*
G02*
X6393000Y-15744000I100000J0D01*
G01*
X6634729Y-15635484D02*
X6758539Y-15635484D01*
X6758539Y-15635484D02*
X6691872Y-15711674D01*
X6691872Y-15711674D02*
X6720443Y-15711674D01*
X6720443Y-15711674D02*
X6739491Y-15721198D01*
X6739491Y-15721198D02*
X6749015Y-15730722D01*
X6749015Y-15730722D02*
X6758539Y-15749769D01*
X6758539Y-15749769D02*
X6758539Y-15797388D01*
X6758539Y-15797388D02*
X6749015Y-15816436D01*
X6749015Y-15816436D02*
X6739491Y-15825960D01*
X6739491Y-15825960D02*
X6720443Y-15835484D01*
X6720443Y-15835484D02*
X6663301Y-15835484D01*
X6663301Y-15835484D02*
X6644253Y-15825960D01*
X6644253Y-15825960D02*
X6634729Y-15816436D01*
X6844253Y-15816436D02*
X6853777Y-15825960D01*
X6853777Y-15825960D02*
X6844253Y-15835484D01*
X6844253Y-15835484D02*
X6834729Y-15825960D01*
X6834729Y-15825960D02*
X6844253Y-15816436D01*
X6844253Y-15816436D02*
X6844253Y-15835484D01*
X6929967Y-15654531D02*
X6939491Y-15645008D01*
X6939491Y-15645008D02*
X6958539Y-15635484D01*
X6958539Y-15635484D02*
X7006158Y-15635484D01*
X7006158Y-15635484D02*
X7025205Y-15645008D01*
X7025205Y-15645008D02*
X7034729Y-15654531D01*
X7034729Y-15654531D02*
X7044253Y-15673579D01*
X7044253Y-15673579D02*
X7044253Y-15692627D01*
X7044253Y-15692627D02*
X7034729Y-15721198D01*
X7034729Y-15721198D02*
X6920443Y-15835484D01*
X6920443Y-15835484D02*
X7044253Y-15835484D01*
X7168062Y-15635484D02*
X7187110Y-15635484D01*
X7187110Y-15635484D02*
X7206158Y-15645008D01*
X7206158Y-15645008D02*
X7215682Y-15654531D01*
X7215682Y-15654531D02*
X7225205Y-15673579D01*
X7225205Y-15673579D02*
X7234729Y-15711674D01*
X7234729Y-15711674D02*
X7234729Y-15759293D01*
X7234729Y-15759293D02*
X7225205Y-15797388D01*
X7225205Y-15797388D02*
X7215682Y-15816436D01*
X7215682Y-15816436D02*
X7206158Y-15825960D01*
X7206158Y-15825960D02*
X7187110Y-15835484D01*
X7187110Y-15835484D02*
X7168062Y-15835484D01*
X7168062Y-15835484D02*
X7149015Y-15825960D01*
X7149015Y-15825960D02*
X7139491Y-15816436D01*
X7139491Y-15816436D02*
X7129967Y-15797388D01*
X7129967Y-15797388D02*
X7120443Y-15759293D01*
X7120443Y-15759293D02*
X7120443Y-15711674D01*
X7120443Y-15711674D02*
X7129967Y-15673579D01*
X7129967Y-15673579D02*
X7139491Y-15654531D01*
X7139491Y-15654531D02*
X7149015Y-15645008D01*
X7149015Y-15645008D02*
X7168062Y-15635484D01*
X7358539Y-15635484D02*
X7377586Y-15635484D01*
X7377586Y-15635484D02*
X7396634Y-15645008D01*
X7396634Y-15645008D02*
X7406158Y-15654531D01*
X7406158Y-15654531D02*
X7415682Y-15673579D01*
X7415682Y-15673579D02*
X7425205Y-15711674D01*
X7425205Y-15711674D02*
X7425205Y-15759293D01*
X7425205Y-15759293D02*
X7415682Y-15797388D01*
X7415682Y-15797388D02*
X7406158Y-15816436D01*
X7406158Y-15816436D02*
X7396634Y-15825960D01*
X7396634Y-15825960D02*
X7377586Y-15835484D01*
X7377586Y-15835484D02*
X7358539Y-15835484D01*
X7358539Y-15835484D02*
X7339491Y-15825960D01*
X7339491Y-15825960D02*
X7329967Y-15816436D01*
X7329967Y-15816436D02*
X7320443Y-15797388D01*
X7320443Y-15797388D02*
X7310920Y-15759293D01*
X7310920Y-15759293D02*
X7310920Y-15711674D01*
X7310920Y-15711674D02*
X7320443Y-15673579D01*
X7320443Y-15673579D02*
X7329967Y-15654531D01*
X7329967Y-15654531D02*
X7339491Y-15645008D01*
X7339491Y-15645008D02*
X7358539Y-15635484D01*
X7510920Y-15835484D02*
X7510920Y-15702150D01*
X7510920Y-15721198D02*
X7520443Y-15711674D01*
X7520443Y-15711674D02*
X7539491Y-15702150D01*
X7539491Y-15702150D02*
X7568063Y-15702150D01*
X7568063Y-15702150D02*
X7587110Y-15711674D01*
X7587110Y-15711674D02*
X7596634Y-15730722D01*
X7596634Y-15730722D02*
X7596634Y-15835484D01*
X7596634Y-15730722D02*
X7606158Y-15711674D01*
X7606158Y-15711674D02*
X7625205Y-15702150D01*
X7625205Y-15702150D02*
X7653777Y-15702150D01*
X7653777Y-15702150D02*
X7672824Y-15711674D01*
X7672824Y-15711674D02*
X7682348Y-15730722D01*
X7682348Y-15730722D02*
X7682348Y-15835484D01*
X7777586Y-15835484D02*
X7777586Y-15702150D01*
X7777586Y-15721198D02*
X7787110Y-15711674D01*
X7787110Y-15711674D02*
X7806158Y-15702150D01*
X7806158Y-15702150D02*
X7834729Y-15702150D01*
X7834729Y-15702150D02*
X7853777Y-15711674D01*
X7853777Y-15711674D02*
X7863301Y-15730722D01*
X7863301Y-15730722D02*
X7863301Y-15835484D01*
X7863301Y-15730722D02*
X7872824Y-15711674D01*
X7872824Y-15711674D02*
X7891872Y-15702150D01*
X7891872Y-15702150D02*
X7920443Y-15702150D01*
X7920443Y-15702150D02*
X7939491Y-15711674D01*
X7939491Y-15711674D02*
X7949015Y-15730722D01*
X7949015Y-15730722D02*
X7949015Y-15835484D01*
X8339491Y-15625960D02*
X8168063Y-15883103D01*
X8596634Y-15635484D02*
X8615682Y-15635484D01*
X8615682Y-15635484D02*
X8634729Y-15645008D01*
X8634729Y-15645008D02*
X8644253Y-15654531D01*
X8644253Y-15654531D02*
X8653777Y-15673579D01*
X8653777Y-15673579D02*
X8663301Y-15711674D01*
X8663301Y-15711674D02*
X8663301Y-15759293D01*
X8663301Y-15759293D02*
X8653777Y-15797388D01*
X8653777Y-15797388D02*
X8644253Y-15816436D01*
X8644253Y-15816436D02*
X8634729Y-15825960D01*
X8634729Y-15825960D02*
X8615682Y-15835484D01*
X8615682Y-15835484D02*
X8596634Y-15835484D01*
X8596634Y-15835484D02*
X8577587Y-15825960D01*
X8577587Y-15825960D02*
X8568063Y-15816436D01*
X8568063Y-15816436D02*
X8558539Y-15797388D01*
X8558539Y-15797388D02*
X8549015Y-15759293D01*
X8549015Y-15759293D02*
X8549015Y-15711674D01*
X8549015Y-15711674D02*
X8558539Y-15673579D01*
X8558539Y-15673579D02*
X8568063Y-15654531D01*
X8568063Y-15654531D02*
X8577587Y-15645008D01*
X8577587Y-15645008D02*
X8596634Y-15635484D01*
X8749015Y-15816436D02*
X8758539Y-15825960D01*
X8758539Y-15825960D02*
X8749015Y-15835484D01*
X8749015Y-15835484D02*
X8739491Y-15825960D01*
X8739491Y-15825960D02*
X8749015Y-15816436D01*
X8749015Y-15816436D02*
X8749015Y-15835484D01*
X8949015Y-15835484D02*
X8834729Y-15835484D01*
X8891872Y-15835484D02*
X8891872Y-15635484D01*
X8891872Y-15635484D02*
X8872825Y-15664055D01*
X8872825Y-15664055D02*
X8853777Y-15683103D01*
X8853777Y-15683103D02*
X8834729Y-15692627D01*
X9025206Y-15654531D02*
X9034729Y-15645008D01*
X9034729Y-15645008D02*
X9053777Y-15635484D01*
X9053777Y-15635484D02*
X9101396Y-15635484D01*
X9101396Y-15635484D02*
X9120444Y-15645008D01*
X9120444Y-15645008D02*
X9129968Y-15654531D01*
X9129968Y-15654531D02*
X9139491Y-15673579D01*
X9139491Y-15673579D02*
X9139491Y-15692627D01*
X9139491Y-15692627D02*
X9129968Y-15721198D01*
X9129968Y-15721198D02*
X9015682Y-15835484D01*
X9015682Y-15835484D02*
X9139491Y-15835484D01*
X9310920Y-15635484D02*
X9272825Y-15635484D01*
X9272825Y-15635484D02*
X9253777Y-15645008D01*
X9253777Y-15645008D02*
X9244253Y-15654531D01*
X9244253Y-15654531D02*
X9225206Y-15683103D01*
X9225206Y-15683103D02*
X9215682Y-15721198D01*
X9215682Y-15721198D02*
X9215682Y-15797388D01*
X9215682Y-15797388D02*
X9225206Y-15816436D01*
X9225206Y-15816436D02*
X9234729Y-15825960D01*
X9234729Y-15825960D02*
X9253777Y-15835484D01*
X9253777Y-15835484D02*
X9291872Y-15835484D01*
X9291872Y-15835484D02*
X9310920Y-15825960D01*
X9310920Y-15825960D02*
X9320444Y-15816436D01*
X9320444Y-15816436D02*
X9329968Y-15797388D01*
X9329968Y-15797388D02*
X9329968Y-15749769D01*
X9329968Y-15749769D02*
X9320444Y-15730722D01*
X9320444Y-15730722D02*
X9310920Y-15721198D01*
X9310920Y-15721198D02*
X9291872Y-15711674D01*
X9291872Y-15711674D02*
X9253777Y-15711674D01*
X9253777Y-15711674D02*
X9234729Y-15721198D01*
X9234729Y-15721198D02*
X9225206Y-15730722D01*
X9225206Y-15730722D02*
X9215682Y-15749769D01*
X9453777Y-15635484D02*
X9472825Y-15635484D01*
X9472825Y-15635484D02*
X9491872Y-15645008D01*
X9491872Y-15645008D02*
X9501396Y-15654531D01*
X9501396Y-15654531D02*
X9510920Y-15673579D01*
X9510920Y-15673579D02*
X9520444Y-15711674D01*
X9520444Y-15711674D02*
X9520444Y-15759293D01*
X9520444Y-15759293D02*
X9510920Y-15797388D01*
X9510920Y-15797388D02*
X9501396Y-15816436D01*
X9501396Y-15816436D02*
X9491872Y-15825960D01*
X9491872Y-15825960D02*
X9472825Y-15835484D01*
X9472825Y-15835484D02*
X9453777Y-15835484D01*
X9453777Y-15835484D02*
X9434729Y-15825960D01*
X9434729Y-15825960D02*
X9425206Y-15816436D01*
X9425206Y-15816436D02*
X9415682Y-15797388D01*
X9415682Y-15797388D02*
X9406158Y-15759293D01*
X9406158Y-15759293D02*
X9406158Y-15711674D01*
X9406158Y-15711674D02*
X9415682Y-15673579D01*
X9415682Y-15673579D02*
X9425206Y-15654531D01*
X9425206Y-15654531D02*
X9434729Y-15645008D01*
X9434729Y-15645008D02*
X9453777Y-15635484D01*
X9596634Y-15635484D02*
X9596634Y-15673579D01*
X9672825Y-15635484D02*
X9672825Y-15673579D01*
X9968063Y-15911674D02*
X9958539Y-15902150D01*
X9958539Y-15902150D02*
X9939491Y-15873579D01*
X9939491Y-15873579D02*
X9929968Y-15854531D01*
X9929968Y-15854531D02*
X9920444Y-15825960D01*
X9920444Y-15825960D02*
X9910920Y-15778341D01*
X9910920Y-15778341D02*
X9910920Y-15740246D01*
X9910920Y-15740246D02*
X9920444Y-15692627D01*
X9920444Y-15692627D02*
X9929968Y-15664055D01*
X9929968Y-15664055D02*
X9939491Y-15645008D01*
X9939491Y-15645008D02*
X9958539Y-15616436D01*
X9958539Y-15616436D02*
X9968063Y-15606912D01*
X10034730Y-15654531D02*
X10044253Y-15645008D01*
X10044253Y-15645008D02*
X10063301Y-15635484D01*
X10063301Y-15635484D02*
X10110920Y-15635484D01*
X10110920Y-15635484D02*
X10129968Y-15645008D01*
X10129968Y-15645008D02*
X10139491Y-15654531D01*
X10139491Y-15654531D02*
X10149015Y-15673579D01*
X10149015Y-15673579D02*
X10149015Y-15692627D01*
X10149015Y-15692627D02*
X10139491Y-15721198D01*
X10139491Y-15721198D02*
X10025206Y-15835484D01*
X10025206Y-15835484D02*
X10149015Y-15835484D01*
X10387111Y-15835484D02*
X10387111Y-15635484D01*
X10472825Y-15835484D02*
X10472825Y-15730722D01*
X10472825Y-15730722D02*
X10463301Y-15711674D01*
X10463301Y-15711674D02*
X10444253Y-15702150D01*
X10444253Y-15702150D02*
X10415682Y-15702150D01*
X10415682Y-15702150D02*
X10396634Y-15711674D01*
X10396634Y-15711674D02*
X10387111Y-15721198D01*
X10596634Y-15835484D02*
X10577587Y-15825960D01*
X10577587Y-15825960D02*
X10568063Y-15816436D01*
X10568063Y-15816436D02*
X10558539Y-15797388D01*
X10558539Y-15797388D02*
X10558539Y-15740246D01*
X10558539Y-15740246D02*
X10568063Y-15721198D01*
X10568063Y-15721198D02*
X10577587Y-15711674D01*
X10577587Y-15711674D02*
X10596634Y-15702150D01*
X10596634Y-15702150D02*
X10625206Y-15702150D01*
X10625206Y-15702150D02*
X10644253Y-15711674D01*
X10644253Y-15711674D02*
X10653777Y-15721198D01*
X10653777Y-15721198D02*
X10663301Y-15740246D01*
X10663301Y-15740246D02*
X10663301Y-15797388D01*
X10663301Y-15797388D02*
X10653777Y-15816436D01*
X10653777Y-15816436D02*
X10644253Y-15825960D01*
X10644253Y-15825960D02*
X10625206Y-15835484D01*
X10625206Y-15835484D02*
X10596634Y-15835484D01*
X10777587Y-15835484D02*
X10758539Y-15825960D01*
X10758539Y-15825960D02*
X10749015Y-15806912D01*
X10749015Y-15806912D02*
X10749015Y-15635484D01*
X10929968Y-15825960D02*
X10910920Y-15835484D01*
X10910920Y-15835484D02*
X10872825Y-15835484D01*
X10872825Y-15835484D02*
X10853777Y-15825960D01*
X10853777Y-15825960D02*
X10844253Y-15806912D01*
X10844253Y-15806912D02*
X10844253Y-15730722D01*
X10844253Y-15730722D02*
X10853777Y-15711674D01*
X10853777Y-15711674D02*
X10872825Y-15702150D01*
X10872825Y-15702150D02*
X10910920Y-15702150D01*
X10910920Y-15702150D02*
X10929968Y-15711674D01*
X10929968Y-15711674D02*
X10939492Y-15730722D01*
X10939492Y-15730722D02*
X10939492Y-15749769D01*
X10939492Y-15749769D02*
X10844253Y-15768817D01*
X11015682Y-15825960D02*
X11034730Y-15835484D01*
X11034730Y-15835484D02*
X11072825Y-15835484D01*
X11072825Y-15835484D02*
X11091873Y-15825960D01*
X11091873Y-15825960D02*
X11101396Y-15806912D01*
X11101396Y-15806912D02*
X11101396Y-15797388D01*
X11101396Y-15797388D02*
X11091873Y-15778341D01*
X11091873Y-15778341D02*
X11072825Y-15768817D01*
X11072825Y-15768817D02*
X11044253Y-15768817D01*
X11044253Y-15768817D02*
X11025206Y-15759293D01*
X11025206Y-15759293D02*
X11015682Y-15740246D01*
X11015682Y-15740246D02*
X11015682Y-15730722D01*
X11015682Y-15730722D02*
X11025206Y-15711674D01*
X11025206Y-15711674D02*
X11044253Y-15702150D01*
X11044253Y-15702150D02*
X11072825Y-15702150D01*
X11072825Y-15702150D02*
X11091873Y-15711674D01*
X11168063Y-15911674D02*
X11177587Y-15902150D01*
X11177587Y-15902150D02*
X11196634Y-15873579D01*
X11196634Y-15873579D02*
X11206158Y-15854531D01*
X11206158Y-15854531D02*
X11215682Y-15825960D01*
X11215682Y-15825960D02*
X11225206Y-15778341D01*
X11225206Y-15778341D02*
X11225206Y-15740246D01*
X11225206Y-15740246D02*
X11215682Y-15692627D01*
X11215682Y-15692627D02*
X11206158Y-15664055D01*
X11206158Y-15664055D02*
X11196634Y-15645008D01*
X11196634Y-15645008D02*
X11177587Y-15616436D01*
X11177587Y-15616436D02*
X11168063Y-15606912D01*
X11529968Y-15911674D02*
X11520444Y-15902150D01*
X11520444Y-15902150D02*
X11501396Y-15873579D01*
X11501396Y-15873579D02*
X11491872Y-15854531D01*
X11491872Y-15854531D02*
X11482349Y-15825960D01*
X11482349Y-15825960D02*
X11472825Y-15778341D01*
X11472825Y-15778341D02*
X11472825Y-15740246D01*
X11472825Y-15740246D02*
X11482349Y-15692627D01*
X11482349Y-15692627D02*
X11491872Y-15664055D01*
X11491872Y-15664055D02*
X11501396Y-15645008D01*
X11501396Y-15645008D02*
X11520444Y-15616436D01*
X11520444Y-15616436D02*
X11529968Y-15606912D01*
X11606158Y-15702150D02*
X11606158Y-15835484D01*
X11606158Y-15721198D02*
X11615682Y-15711674D01*
X11615682Y-15711674D02*
X11634730Y-15702150D01*
X11634730Y-15702150D02*
X11663301Y-15702150D01*
X11663301Y-15702150D02*
X11682349Y-15711674D01*
X11682349Y-15711674D02*
X11691872Y-15730722D01*
X11691872Y-15730722D02*
X11691872Y-15835484D01*
X11815682Y-15835484D02*
X11796634Y-15825960D01*
X11796634Y-15825960D02*
X11787111Y-15816436D01*
X11787111Y-15816436D02*
X11777587Y-15797388D01*
X11777587Y-15797388D02*
X11777587Y-15740246D01*
X11777587Y-15740246D02*
X11787111Y-15721198D01*
X11787111Y-15721198D02*
X11796634Y-15711674D01*
X11796634Y-15711674D02*
X11815682Y-15702150D01*
X11815682Y-15702150D02*
X11844253Y-15702150D01*
X11844253Y-15702150D02*
X11863301Y-15711674D01*
X11863301Y-15711674D02*
X11872825Y-15721198D01*
X11872825Y-15721198D02*
X11882349Y-15740246D01*
X11882349Y-15740246D02*
X11882349Y-15797388D01*
X11882349Y-15797388D02*
X11872825Y-15816436D01*
X11872825Y-15816436D02*
X11863301Y-15825960D01*
X11863301Y-15825960D02*
X11844253Y-15835484D01*
X11844253Y-15835484D02*
X11815682Y-15835484D01*
X11939492Y-15702150D02*
X12015682Y-15702150D01*
X11968063Y-15635484D02*
X11968063Y-15806912D01*
X11968063Y-15806912D02*
X11977587Y-15825960D01*
X11977587Y-15825960D02*
X11996634Y-15835484D01*
X11996634Y-15835484D02*
X12015682Y-15835484D01*
X12234730Y-15702150D02*
X12234730Y-15902150D01*
X12234730Y-15711674D02*
X12253777Y-15702150D01*
X12253777Y-15702150D02*
X12291873Y-15702150D01*
X12291873Y-15702150D02*
X12310920Y-15711674D01*
X12310920Y-15711674D02*
X12320444Y-15721198D01*
X12320444Y-15721198D02*
X12329968Y-15740246D01*
X12329968Y-15740246D02*
X12329968Y-15797388D01*
X12329968Y-15797388D02*
X12320444Y-15816436D01*
X12320444Y-15816436D02*
X12310920Y-15825960D01*
X12310920Y-15825960D02*
X12291873Y-15835484D01*
X12291873Y-15835484D02*
X12253777Y-15835484D01*
X12253777Y-15835484D02*
X12234730Y-15825960D01*
X12444253Y-15835484D02*
X12425206Y-15825960D01*
X12425206Y-15825960D02*
X12415682Y-15806912D01*
X12415682Y-15806912D02*
X12415682Y-15635484D01*
X12606158Y-15835484D02*
X12606158Y-15730722D01*
X12606158Y-15730722D02*
X12596634Y-15711674D01*
X12596634Y-15711674D02*
X12577587Y-15702150D01*
X12577587Y-15702150D02*
X12539492Y-15702150D01*
X12539492Y-15702150D02*
X12520444Y-15711674D01*
X12606158Y-15825960D02*
X12587111Y-15835484D01*
X12587111Y-15835484D02*
X12539492Y-15835484D01*
X12539492Y-15835484D02*
X12520444Y-15825960D01*
X12520444Y-15825960D02*
X12510920Y-15806912D01*
X12510920Y-15806912D02*
X12510920Y-15787865D01*
X12510920Y-15787865D02*
X12520444Y-15768817D01*
X12520444Y-15768817D02*
X12539492Y-15759293D01*
X12539492Y-15759293D02*
X12587111Y-15759293D01*
X12587111Y-15759293D02*
X12606158Y-15749769D01*
X12672825Y-15702150D02*
X12749015Y-15702150D01*
X12701396Y-15635484D02*
X12701396Y-15806912D01*
X12701396Y-15806912D02*
X12710920Y-15825960D01*
X12710920Y-15825960D02*
X12729968Y-15835484D01*
X12729968Y-15835484D02*
X12749015Y-15835484D01*
X12891873Y-15825960D02*
X12872825Y-15835484D01*
X12872825Y-15835484D02*
X12834730Y-15835484D01*
X12834730Y-15835484D02*
X12815682Y-15825960D01*
X12815682Y-15825960D02*
X12806158Y-15806912D01*
X12806158Y-15806912D02*
X12806158Y-15730722D01*
X12806158Y-15730722D02*
X12815682Y-15711674D01*
X12815682Y-15711674D02*
X12834730Y-15702150D01*
X12834730Y-15702150D02*
X12872825Y-15702150D01*
X12872825Y-15702150D02*
X12891873Y-15711674D01*
X12891873Y-15711674D02*
X12901396Y-15730722D01*
X12901396Y-15730722D02*
X12901396Y-15749769D01*
X12901396Y-15749769D02*
X12806158Y-15768817D01*
X13072825Y-15835484D02*
X13072825Y-15635484D01*
X13072825Y-15825960D02*
X13053777Y-15835484D01*
X13053777Y-15835484D02*
X13015682Y-15835484D01*
X13015682Y-15835484D02*
X12996634Y-15825960D01*
X12996634Y-15825960D02*
X12987111Y-15816436D01*
X12987111Y-15816436D02*
X12977587Y-15797388D01*
X12977587Y-15797388D02*
X12977587Y-15740246D01*
X12977587Y-15740246D02*
X12987111Y-15721198D01*
X12987111Y-15721198D02*
X12996634Y-15711674D01*
X12996634Y-15711674D02*
X13015682Y-15702150D01*
X13015682Y-15702150D02*
X13053777Y-15702150D01*
X13053777Y-15702150D02*
X13072825Y-15711674D01*
X13149015Y-15911674D02*
X13158539Y-15902150D01*
X13158539Y-15902150D02*
X13177587Y-15873579D01*
X13177587Y-15873579D02*
X13187111Y-15854531D01*
X13187111Y-15854531D02*
X13196634Y-15825960D01*
X13196634Y-15825960D02*
X13206158Y-15778341D01*
X13206158Y-15778341D02*
X13206158Y-15740246D01*
X13206158Y-15740246D02*
X13196634Y-15692627D01*
X13196634Y-15692627D02*
X13187111Y-15664055D01*
X13187111Y-15664055D02*
X13177587Y-15645008D01*
X13177587Y-15645008D02*
X13158539Y-15616436D01*
X13158539Y-15616436D02*
X13149015Y-15606912D01*
M02*
